<svg
  xmlns="http://www.w3.org/2000/svg"
  height="1em"
  width="1em"
  fill="currentColor"
  viewBox="0 0 31.87 31.39"
>
  <path
    d="M31.94,26.16a2.37,2.37,0,0,1-1,1.36,2.18,2.18,0,0,1-2,.17L24.08,26a.66.66,0,0,0-.58,0,12.78,12.78,0,0,1-4.85,1.2.84.84,0,0,0-.68.34A9.65,9.65,0,0,1,9,31.19a9.5,9.5,0,0,1-2.71-.75.72.72,0,0,0-.46,0c-1.15.38-2.29.79-3.44,1.17A1.73,1.73,0,0,1,.09,30.31a2.26,2.26,0,0,1,.08-1C.54,28.16,1,27,1.32,25.9a.76.76,0,0,0,0-.47A9.8,9.8,0,0,1,3.55,14.32c.26-.26.65-.45.81-.76a3.33,3.33,0,0,0,.1-1.07A13.27,13.27,0,0,1,13.3,1.1,12.76,12.76,0,0,1,19.05.36,13.51,13.51,0,0,1,30.77,9.89a13.32,13.32,0,0,1-.6,9.38,1.08,1.08,0,0,0-.05.88c.6,1.71,1.18,3.44,1.77,5.16a.1.1,0,0,0,.05,0ZM6.25,13.76c.1.8.15,1.61.32,2.39a11.24,11.24,0,0,0,3.62,6.23,11.36,11.36,0,0,0,8.08,2.95,11,11,0,0,0,4.8-1.23A1.41,1.41,0,0,1,24.24,24c1.74.61,3.5,1.21,5.25,1.81a2.46,2.46,0,0,0,.29.09c.19,0,.26-.06.22-.24a.88.88,0,0,0-.07-.23c-.58-1.71-1.15-3.41-1.76-5.1a1.81,1.81,0,0,1,.1-1.54,11.26,11.26,0,0,0,1-7.11,11.13,11.13,0,0,0-3.56-6.4,11.3,11.3,0,0,0-9.8-2.9,10.75,10.75,0,0,0-4.25,1.65A11.5,11.5,0,0,0,7.53,8.6,12.21,12.21,0,0,0,6.25,13.76Zm9.53,13.39c-6.1-1.34-9.84-5-11.25-11.11a7.91,7.91,0,0,0-1.27,9,1.18,1.18,0,0,1,0,1C3,27,2.64,28,2.31,28.92c-.08.23-.15.47-.24.75l.37-.1c1.06-.37,2.11-.72,3.16-1.1a1.37,1.37,0,0,1,1.17.06,7.91,7.91,0,0,0,9-1.38Z"
    transform="translate(-0.06 -0.31)"
  />
  <path
    d="M17.86,10.65H12.22a1,1,0,0,1-1-.78.94.94,0,0,1,.56-1,1.22,1.22,0,0,1,.42-.09H23.46a.94.94,0,0,1,1,.87.93.93,0,0,1-1,1Z"
    transform="translate(-0.06 -0.31)"
  />
  <path
    d="M17.89,12.64h5.57a1,1,0,0,1,1,.7A.92.92,0,0,1,24,14.4a1.33,1.33,0,0,1-.62.16H12.32a1,1,0,0,1-1.06-1,1,1,0,0,1,1.05-.95Z"
    transform="translate(-0.06 -0.31)"
  />
  <path
    d="M15.68,18.46c-1.08,0-2.17,0-3.26,0a1.71,1.71,0,0,1-.71-.15.89.89,0,0,1-.43-1,1,1,0,0,1,.84-.73h6.93a.94.94,0,0,1,1.06.89.91.91,0,0,1-.85,1,2.3,2.3,0,0,1-.37,0Z"
    transform="translate(-0.06 -0.31)"
  />
</svg>
