<svg xmlns="http://www.w3.org/2000/svg" width="70" height="32" viewBox="0 0 106.3 70">
  <g id="Verificacion_Identidad" data-name="Verificacion Identidad" transform="translate(0.001 -0.009)">
    <path id="Trazado_39" data-name="Trazado 39" d="M57.548,21.861c-2.292-6.2.9-12.841,7.833-16.316a22.04,22.04,0,0,1,20.638-.16c7.033,3.492,10.292,10.2,8,16.476H97.8a9.875,9.875,0,0,1,6.4,1.93A5.96,5.96,0,0,1,106.69,28.8V66a5.978,5.978,0,0,1-2.513,4.977A9.884,9.884,0,0,1,97.8,72.891H9.258a9.934,9.934,0,0,1-6.344-1.95A6.026,6.026,0,0,1,.4,65.975v-37.2A6.026,6.026,0,0,1,2.914,23.81a9.934,9.934,0,0,1,6.344-1.95ZM60.953,27.2a14.8,14.8,0,0,1-1.532-1.869,1.67,1.67,0,0,0-1.669-.748H9.7a6.205,6.205,0,0,0-4.362,1.192,3.643,3.643,0,0,0-1.5,3.427V65.521a3.667,3.667,0,0,0,1.521,3.5,6.27,6.27,0,0,0,4.473,1.173H97.222a6.27,6.27,0,0,0,4.473-1.173,3.666,3.666,0,0,0,1.521-3.5V28.67c.161-2.092-1.8-3.915-4.461-4.139-1.928-.094-3.861-.094-5.789,0a.826.826,0,0,0-.511.214l-1.975,2.483h2.554c3.762,0,6.811,2.391,6.811,5.341S96.8,37.91,93.034,37.91H58.57c-3.43.025-6.348-1.955-6.811-4.62-.443-2.708,1.79-5.242,5.176-5.875,1.378-.14,2.765-.211,4.155-.214ZM75.665,5.839C67.15,5.824,60.23,11.222,60.2,17.9s6.855,12.108,15.37,12.132,15.446-5.366,15.484-12.043c-.017-6.632-6.8-12.034-15.257-12.15Zm0,29.534H92.489a4.037,4.037,0,0,0,2.631-.681,2.336,2.336,0,0,0-.011-3.989,4.046,4.046,0,0,0-2.654-.67H87.346a4.151,4.151,0,0,0-1.5.32,22.917,22.917,0,0,1-20.433,0,2.435,2.435,0,0,0-.954-.294h-6.2A3.386,3.386,0,0,0,55.3,31.848a2.12,2.12,0,0,0,.749,2.67,4.272,4.272,0,0,0,2.895.881Z" transform="translate(-0.4 -2.89)" fill="#e94273"/>
    <path id="Trazado_40" data-name="Trazado 40" d="M2.42,18V13.1A1,1,0,0,1,3.5,12h9.9a1,1,0,0,1,1.09,1.09V23a1,1,0,0,1-1.07,1.08H3.49A1,1,0,0,1,2.42,23Zm11,5V13h-10V23h1V22a5.19,5.19,0,0,1,.11-1.18,2.44,2.44,0,0,1,1.81-1.74A8,8,0,0,1,6,17.64a19.43,19.43,0,0,1,0-2.16A1.49,1.49,0,0,1,7.41,14H9.48A1.49,1.49,0,0,1,11,15.49v1.16a3.33,3.33,0,0,1-.54,2.43,2.57,2.57,0,0,1,2.05,2.72q0,.615,0,1.26ZM7.9,20a10.831,10.831,0,0,0-1.14,0A1.34,1.34,0,0,0,5.5,21a14.269,14.269,0,0,0-.14,2H7.94Zm3.53,3V21.47a1.46,1.46,0,0,0-1.25-1.37,8.54,8.54,0,0,0-1.24,0v3ZM9.94,17.64,8.46,17,7,17.64a1.51,1.51,0,0,0,1.5,1.41A1.49,1.49,0,0,0,9.94,17.64Zm0-1.15v-1a.5.5,0,0,0-.51-.5h-2a.47.47,0,0,0-.48.45v1a1.21,1.21,0,0,0,1-.56c.37-.53.71-.52,1.08,0a1.2,1.2,0,0,0,.97.61Z" transform="translate(-0.4 25.305)" fill="#e94273"/>
    <path id="Trazado_41" data-name="Trazado 41" d="M22.54,20.05H17.17c-.52,0-.67-.14-.67-.67V17.62c0-.4.18-.58.57-.58H28c.39,0,.56.18.57.58v1.85c0,.41-.18.58-.6.58Zm-5-1h10v-1h-10Z" transform="translate(74.686 23.794)" fill="#e94273"/>
    <path id="Trazado_42" data-name="Trazado 42" d="M22.53,26.09H17.15c-.49,0-.65-.15-.65-.66V23.67c0-.42.17-.6.59-.6H28a.51.51,0,0,1,.59.57v1.88a.51.51,0,0,1-.59.57Zm5-2h-10v1h10Z" transform="translate(74.686 40.896)" fill="#e94273"/>
    <path id="Trazado_43" data-name="Trazado 43" d="M14.48,25.61v1h-12v-1Z" transform="translate(-0.4 40.896)" fill="#e94273"/>
    <path id="Trazado_44" data-name="Trazado 44" d="M26.55,21.08v1h-10v-1Z" transform="translate(56.767 28.683)" fill="#e94273"/>
    <path id="Trazado_45" data-name="Trazado 45" d="M28.56,21.08v1h-1v-1Z" transform="translate(74.686 28.683)" fill="#e94273"/>
    <path id="Trazado_46" data-name="Trazado 46" d="M21.51,8.79l2.54-2.53c.4-.4.6-.41,1,0s.55.54.82.82a.51.51,0,0,1,0,.82l-3.94,3.93a.49.49,0,0,1-.79,0c-.65-.64-1.29-1.28-1.93-1.93a.5.5,0,0,1,0-.8l.93-.93a.5.5,0,0,1,.8,0C21.12,8.36,21.3,8.57,21.51,8.79Zm0,1.92,3.28-3.28-.25-.24L22,9.76c-.34.33-.57.33-.91,0-.18-.17-.35-.35-.53-.54l-.29.24Z" transform="translate(57.472 -2.89)" fill="#e94273"/>
  </g>
</svg>
