<svg width="25" height="25" viewBox="0 0 25 25" fill="none" xmlns="http://www.w3.org/2000/svg">
<path d="M12.5 0C10.0277 0 7.61099 0.733112 5.55538 2.10663C3.49976 3.48015 1.89761 5.43238 0.951511 7.71646C0.00541598 10.0005 -0.242126 12.5139 0.24019 14.9386C0.722505 17.3634 1.91301 19.5907 3.66117 21.3388C5.40933 23.087 7.63661 24.2775 10.0614 24.7598C12.4861 25.2421 14.9995 24.9946 17.2835 24.0485C19.5676 23.1024 21.5199 21.5002 22.8934 19.4446C24.2669 17.389 25 14.9723 25 12.5C25 9.18479 23.683 6.00537 21.3388 3.66116C18.9946 1.31696 15.8152 0 12.5 0ZM19.1554 9.38503C19.0837 9.48078 19.0031 9.56949 18.9146 9.64997L11.5687 16.9958C11.4566 17.1532 11.3085 17.2816 11.1367 17.3701C10.965 17.4587 10.7745 17.5049 10.5812 17.5049C10.388 17.5049 10.1975 17.4587 10.0258 17.3701C9.85399 17.2816 9.70588 17.1532 9.59377 16.9958L5.97303 13.359C5.82143 13.2182 5.70979 13.0398 5.64947 12.8419C5.58915 12.644 5.58229 12.4336 5.62959 12.2322C5.67689 12.0308 5.77665 11.8455 5.91876 11.6951C6.06087 11.5447 6.24024 11.4346 6.43867 11.376C6.5179 11.3551 6.59833 11.339 6.67952 11.3279C6.86363 11.3121 7.04896 11.337 7.22239 11.4008C7.39581 11.4646 7.55307 11.5658 7.68305 11.6972C8.59024 12.6124 9.50546 13.5116 10.4046 14.4268C10.5652 14.5954 10.6455 14.6034 10.8141 14.4268L17.317 7.91586C17.469 7.74181 17.668 7.61519 17.8901 7.55113C18.1121 7.48707 18.348 7.48827 18.5694 7.55459C18.7508 7.6087 18.9163 7.70625 19.0515 7.83879C19.1868 7.97133 19.2876 8.13485 19.3454 8.31518C19.4031 8.49551 19.416 8.6872 19.3829 8.87363C19.3498 9.06006 19.2717 9.2356 19.1554 9.38503Z" fill="#D40078"/>
</svg>
