<svg
  id="Relacio_seria"
  data-name="Relacio seria"
  xmlns="http://www.w3.org/2000/svg"
  viewBox="0 0 30.81 18.41"
>
  <defs>
    <style>
      .cls-1 {
        fill: #e94273;
      }
    </style>
  </defs>
  <path
    class="cls-1"
    d="M10.58,16.8a2.57,2.57,0,0,0-.26.41.37.37,0,0,0,.08.48.39.39,0,0,0,.49,0,.44.44,0,0,0,.15-.12,3,3,0,0,0,0-3.92.44.44,0,0,0-.64-.09.43.43,0,0,0,0,.61,3.11,3.11,0,0,1,.35.54c.1.24,0,.46-.24.48a10.73,10.73,0,0,1-1.88,0,.21.21,0,0,1-.13,0,1.83,1.83,0,0,1,.07.32c0,.39.16.5.56.51s.86,0,1.28,0c.19,0,.4,0,.33.32l-.07,0C10.78,16.51,10.67,16.66,10.58,16.8Z"
    transform="translate(-0.6 -6.8)"
  />
  <path
    class="cls-1"
    d="M8.36,15h1.93c.34,0,.38-.08.2-.37a3.83,3.83,0,0,0-.33-.46.6.6,0,0,1,.9-.79,3.18,3.18,0,0,1,0,4.44.57.57,0,0,1-.79,0,.55.55,0,0,1-.12-.78l.51-.79c0-.22-.21-.14-.32-.14H8.74c-.27,0-.39-.12-.38-.39S8.36,15.29,8.36,15Z"
    transform="translate(-0.6 -6.8)"
  />
  <path
    class="cls-1"
    d="M31.32,15.34a5.71,5.71,0,0,0-2.38-2.19,1.72,1.72,0,0,0-2.43,1.49c0,.33-.14.42-.44.39a2.35,2.35,0,0,0-.26,0h-.22c-.45,0-.45,0-.32-.44a5.68,5.68,0,0,0,.3-1.78A6,6,0,0,0,21.05,7L20.8,7a5.87,5.87,0,0,0-4.91,1,.67.67,0,0,1-.5.21,6,6,0,0,0-7-.46h0l-.33.18a5.79,5.79,0,0,0-2.35,6.75c0,.11.18.27,0,.36a.37.37,0,0,1-.42-.08c-.27-.24-.55-.47-.83-.7a5.21,5.21,0,0,0-.75-.66c-.35-.3-.64-.32-.9-.09s-.27.51,0,.9c.06.15.21.2.29.32a.81.81,0,0,0-.35-.25l-1.11-.91a.6.6,0,0,0-.93,0c-.23.29-.18.62.17.92s.74.63,1.13.94c.19.16.2.27,0,.44-.4.32-.79.65-1.18,1a.59.59,0,0,0-.13.86.62.62,0,0,0,.91,0l1-.8A.84.84,0,0,0,3,16.68c-.07.1-.23.17-.28.34a.59.59,0,0,0,.2.8.63.63,0,0,0,.82-.11l.88-.77h0c.22-.19.44-.4.68-.59a1.16,1.16,0,0,1,1.38.26,15.11,15.11,0,0,0,1.69,2.3,1.79,1.79,0,0,0,.2.28,31,31,0,0,0,3.9,3.87,17.2,17.2,0,0,0,2.62,2,.61.61,0,0,0,.85,0,25.38,25.38,0,0,0,3.52-2.77,9.57,9.57,0,0,0,1.36-1.34c.38-.43.79-.84,1.19-1.26a11.88,11.88,0,0,0,2-2.55,1.54,1.54,0,0,1,1.71-.9c.69.08.69,0,.87.64a1.65,1.65,0,0,0,2.33,1.24A5.46,5.46,0,0,0,31.3,16,.54.54,0,0,0,31.32,15.34Zm-7.14-1.4A11.46,11.46,0,0,1,21.88,18c-.41.5-.85,1-1.28,1.47a44.25,44.25,0,0,1-4.78,4.19c-.21.15-.38.23-.6.05L13.36,22.2a30.94,30.94,0,0,1-4.87-5c-.16-.25-.33-.5-.5-.75-.06-.09-.14-.23.07-.23.84,0,1.68-.05,2.52,0,0,0,0,0,.06,0s0,0,0,0l.07,0c.07-.29-.14-.3-.33-.32-.42,0-.85,0-1.28,0s-.51-.12-.56-.51a1.83,1.83,0,0,0-.07-.32L8.36,15a6.94,6.94,0,0,0-.79,0c-.3,0-.44-.12-.55-.39A4.79,4.79,0,0,1,8.35,9.19L8.6,9a4.93,4.93,0,0,1,4.86-.56A4.74,4.74,0,0,1,14.53,9a1.54,1.54,0,0,0,.78.35,1.36,1.36,0,0,0,1.07-.28A5,5,0,0,1,21,8.23a6.1,6.1,0,0,1,2,1.24A4.19,4.19,0,0,1,24.18,13.94ZM30,15.72A3.93,3.93,0,0,1,28.41,17l-.14,0a.54.54,0,0,1-.49-.83,1,1,0,0,0,0-1.16.51.51,0,0,1,.08-.66.56.56,0,0,1,.69-.12,4.38,4.38,0,0,1,1.39,1.25A.14.14,0,0,1,30,15.72Z"
    transform="translate(-0.6 -6.8)"
  />
  <path
    class="cls-1"
    d="M19.2,19.73a.67.67,0,0,1-.24.5,31.88,31.88,0,0,1-3,2.45.63.63,0,0,1-.77.07.57.57,0,0,1-.24-.63.6.6,0,0,1,.27-.39,37.67,37.67,0,0,0,2.95-2.4.6.6,0,0,1,1,.4Z"
    transform="translate(-0.6 -6.8)"
  />
  <path
    class="cls-1"
    d="M20.5,18.46a.59.59,0,0,1-1.18,0,.61.61,0,0,1,.61-.59A.59.59,0,0,1,20.5,18.46Z"
    transform="translate(-0.6 -6.8)"
  />
</svg>
