<svg width="40" height="8" viewBox="0 0 40 8" fill="none" xmlns="http://www.w3.org/2000/svg">
<path d="M9.7981 3.98755C9.7981 1.78529 7.60472 0 4.89905 0C2.19338 0 0 1.78529 0 3.98755C0 6.18981 2.19338 7.9751 4.89905 7.9751C7.60472 7.9751 9.7981 6.18981 9.7981 3.98755Z" fill="#D40078"/>
<path d="M24.5962 3.98755C24.5962 1.78529 22.4028 0 19.6971 0C16.9915 0 14.7981 1.78529 14.7981 3.98755C14.7981 6.18981 16.9915 7.9751 19.6971 7.9751C22.4028 7.9751 24.5962 6.18981 24.5962 3.98755Z" fill="#D40078"/>
<path d="M39.3943 3.98755C39.3943 1.78529 37.2009 0 34.4952 0C31.7896 0 29.5962 1.78529 29.5962 3.98755C29.5962 6.18981 31.7896 7.9751 34.4952 7.9751C37.2009 7.9751 39.3943 6.18981 39.3943 3.98755Z" fill="#D40078"/>
</svg>
