<svg
  xmlns="http://www.w3.org/2000/svg"
  height="1em"
  width="1em"
  fill="currentColor"
  viewBox="0 0 30.71 29.21"
>
  <path
    d="M.62,15.13A3.43,3.43,0,0,1,1.7,13.82l13-11.88a1.64,1.64,0,0,1,2.49,0c1,.88,1.92,1.75,3,2.69,0-.23,0-.38,0-.53A.88.88,0,0,1,21,3.25l.33,0c1.93,0,3.86,0,5.79,0a1,1,0,0,1,1.14,1.15c0,2.43,0,4.85,0,7.28a.62.62,0,0,0,.23.52c.81.73,1.64,1.46,2.43,2.23a1.56,1.56,0,0,1-.66,2.6,2.76,2.76,0,0,1-.65.09h-2v.36c0,4,0,8,0,12a1,1,0,0,1-1.12,1.12q-3.57,0-7.13,0a1,1,0,0,1-1.13-1.14c0-2.35,0-4.7,0-7v-.34H13.75v7.49a.91.91,0,0,1-1,1H5.4a.91.91,0,0,1-1-1V17.1H2.25A1.59,1.59,0,0,1,.68,16l-.06-.1Zm2.23.1.13,0H5c.84,0,1.16.32,1.16,1.16V28.73h5.74v-7.4c0-.8.32-1.11,1.13-1.11,1.93,0,3.86,0,5.79,0A1,1,0,0,1,20,21.35c0,2.34,0,4.68,0,7v.36h5.74V16.31a.94.94,0,0,1,1.05-1h2l.26,0c-.78-.71-1.51-1.38-2.26-2.05a1.23,1.23,0,0,1-.43-1q0-3.41,0-6.81V5.07H22a.2.2,0,0,0,0,.08V6.58a1.27,1.27,0,0,1,0,.39.9.9,0,0,1-1.5.35c-.86-.76-1.71-1.55-2.56-2.32L16,3.28Z"
    transform="translate(-0.62 -1.37)"
  />
</svg>
