<svg
  xmlns="http://www.w3.org/2000/svg"
  id="Calendario"
  viewBox="0 0 30.94 30.94"
  width="1em"
  height="1em"
  fill="currentColor"
>
  <path
    d="M.53,28.31V6.09A.34.34,0,0,0,.58,6a3.63,3.63,0,0,1,3.75-3c.42,0,.84,0,1.29,0V.54H8V2.92H24V.55h2.43V2.94h1.48a3.59,3.59,0,0,1,3.57,3.57q0,10.68,0,21.35a3.38,3.38,0,0,1-1.72,3,8.39,8.39,0,0,1-1.42.56H3.67l-.13-.06A3.45,3.45,0,0,1,1,29.63,9.92,9.92,0,0,1,.53,28.31ZM3,11.9a1.28,1.28,0,0,0,0,.18V27.69A1.25,1.25,0,0,0,4.37,29H27.62a1.26,1.26,0,0,0,1.43-1.43V11.9ZM24,5.38H8V7.76H5.6V5.36H4.3A1.24,1.24,0,0,0,3,6.72v2.5a1.64,1.64,0,0,0,0,.23H29.05c0-1,0-1.95,0-2.92A1.12,1.12,0,0,0,28,5.4a15.09,15.09,0,0,0-1.65,0V7.76H24Z"
    transform="translate(-0.53 -0.54)"
  />
  <path
    d="M5.14,14.43H7.52v2.39H5.14Z"
    transform="translate(-0.53 -0.54)"
  />
  <path
    d="M12.35,16.82H10V14.45h2.38Z"
    transform="translate(-0.53 -0.54)"
  />
  <path
    d="M14.8,16.82V14.44h2.38v2.38Z"
    transform="translate(-0.53 -0.54)"
  />
  <path
    d="M19.64,16.82V14.44H22v2.38Z"
    transform="translate(-0.53 -0.54)"
  />
  <path
    d="M24.47,16.81V14.44h2.39v2.37Z"
    transform="translate(-0.53 -0.54)"
  />
  <path
    d="M5.15,19.27H7.52v2.38H5.15Z"
    transform="translate(-0.53 -0.54)"
  />
  <path
    d="M12.35,21.66H10V19.28h2.38Z"
    transform="translate(-0.53 -0.54)"
  />
  <path
    d="M17.19,19.28v2.37H14.82V19.28Z"
    transform="translate(-0.53 -0.54)"
  />
  <path
    d="M22,21.66H19.64V19.28H22Z"
    transform="translate(-0.53 -0.54)"
  />
  <path
    d="M26.85,21.66H24.47V19.28h2.38Z"
    transform="translate(-0.53 -0.54)"
  />
  <path
    d="M5.14,24.1H7.52v2.38H5.14Z"
    transform="translate(-0.53 -0.54)"
  />
  <path
    d="M10,26.48V24.1h2.38v2.38Z"
    transform="translate(-0.53 -0.54)"
  />
  <path
    d="M17.19,24.11v2.38H14.81V24.11Z"
    transform="translate(-0.53 -0.54)"
  />
  <path
    d="M19.65,24.1H22v2.38H19.65Z"
    transform="translate(-0.53 -0.54)"
  />
</svg>
