<svg
  xmlns="http://www.w3.org/2000/svg"
  id="verificado"
  viewBox="0 0 31.15 31.15"
  width="1em"
  height="1em"
  fill="currentColor"
>
  <path
    d="M16,.43A15.57,15.57,0,1,0,31.57,16,15.57,15.57,0,0,0,16,.43Zm8.29,11.69a2.35,2.35,0,0,1-.3.33L14.84,21.6a1.51,1.51,0,0,1-2.46,0L7.87,17.07a1.46,1.46,0,0,1,.58-2.47,2.51,2.51,0,0,1,.3-.06A1.57,1.57,0,0,1,10,15c1.13,1.14,2.27,2.26,3.39,3.4.2.21.3.22.51,0L22,10.29a1.5,1.5,0,0,1,1.56-.45A1.45,1.45,0,0,1,24.29,12.12Z"
    transform="translate(-0.43 -0.43)"
  />
</svg>
