<svg
  xmlns="http://www.w3.org/2000/svg"
  id="clasificacion"
  viewBox="0 0 24 24"
  width="1em"
  height="1em"
  fill="currentColor"
>
  <path
    d="M2.13,18.19c.06-.38.14-.79.19-1.21a.47.47,0,0,0-.12-.34c-.25-.27-.54-.51-.79-.79a.59.59,0,0,1-.16-.45.55.55,0,0,1,.38-.27C2,15,2.37,15,2.74,14.94a.51.51,0,0,0,.32-.22c.19-.33.33-.69.52-1A.55.55,0,0,1,4,13.46a.54.54,0,0,1,.37.24,9.4,9.4,0,0,1,.48,1,.44.44,0,0,0,.43.31,8.08,8.08,0,0,1,1.08.17.56.56,0,0,1,.35.27.5.5,0,0,1-.12.41c-.27.29-.58.56-.86.85a.52.52,0,0,0-.09.32c0,.36.12.72.17,1.08,0,.19.08.43-.13.51a.75.75,0,0,1-.53,0c-.4-.16-.78-.53-1.16-.53s-.77.36-1.15.56S2.11,18.61,2.13,18.19Z"
    transform="translate(-1.24 -13.35)"
  />
</svg>
