<svg
  xmlns="http://www.w3.org/2000/svg"
  height="1em"
  width="1em"
  fill="currentColor"
  viewBox="0 0 31 31.03"
>
  <path
    d="M29.65,24a5.52,5.52,0,0,1-8.29,6.53c-2-1.39-2.73-3.59-2-6.51a1,1,0,0,0-1,.29c-2.27,2.31-4.57,4.59-6.86,6.88-.43.43-.61.43-1,0l-7-7A.61.61,0,0,0,3,24c-.64,0-1.28,0-1.91,0-.4,0-.58-.17-.58-.56V8.56c0-.4.18-.56.61-.56H13a.69.69,0,0,0,.56-.24l7-7c.43-.42.61-.42,1,0,2.33,2.33,4.66,4.65,7,7A.61.61,0,0,0,29,8h1.88c.44,0,.61.16.61.59V23.4c0,.43-.17.59-.61.59Zm.83-1V9h-29V23h.26c6,0,11.89,0,17.84,0a.47.47,0,0,0,.43-.23,5.44,5.44,0,0,1,6.35-1.93,7.34,7.34,0,0,0,2.08.16V11H22V10h7a.47.47,0,0,1,.49.53V21.46A.48.48,0,0,1,29,22h-.63c.26.32.48.61.72.88a.34.34,0,0,0,.23.11Zm-6,7.49A4.5,4.5,0,1,0,20,26,4.53,4.53,0,0,0,24.49,30.49ZM21,1.8,14.82,8c.39,0,.81,0,1.22,0a.73.73,0,0,0,.42-.18c1.35-1.33,2.69-2.68,4-4,.41-.41.61-.41,1,0l4,4c.07.07.16.17.24.18h1.44ZM4.81,24,11,30.16,17.14,24c-.35,0-.76,0-1.16,0a.77.77,0,0,0-.45.2q-2,2-4,4c-.4.4-.6.4-1,0l-4-4A.56.56,0,0,0,6.19,24C5.72,24,5.26,24,4.81,24ZM24.18,8,21,4.82,17.85,8ZM7.86,24,11,27.13,14.11,24Z"
    transform="translate(-0.5 -0.48)"
  />
  <path
    d="M16,21.53A5.5,5.5,0,1,1,21.54,16,5.5,5.5,0,0,1,16,21.53ZM11.54,16A4.5,4.5,0,1,0,16,11.53,4.52,4.52,0,0,0,11.54,16Z"
    transform="translate(-0.5 -0.48)"
  />
  <path
    d="M10,10v1H3.56V21H10v1H3.2c-.51,0-.66-.15-.66-.68V10.7c0-.52.15-.67.66-.67H10Z"
    transform="translate(-0.5 -0.48)"
  />
  <path
    d="M7.07,14.53H9c.42,0,.59.17.59.58V17c0,.4-.17.58-.56.58H5.11c-.39,0-.56-.18-.57-.58V15.14c0-.44.17-.61.6-.61Zm1.46,1h-3v1h3Z"
    transform="translate(-0.5 -0.48)"
  />
  <path
    d="M25,17.53H23.15c-.43,0-.6-.17-.61-.6V15.12c0-.42.17-.59.58-.59H27c.4,0,.58.17.58.56V17c0,.39-.18.57-.58.57Zm-1.47-2v1h3v-1Z"
    transform="translate(-0.5 -0.48)"
  />
  <path
    d="M24,28.5v-2h-.52A1.49,1.49,0,0,1,22,25.06v-1a1.48,1.48,0,0,1,1.54-1.53H24l0-.49h1l0,.49a1.76,1.76,0,0,1,1.66.56A1.89,1.89,0,0,1,27,24.5h-.9a2.62,2.62,0,0,0-.31-.84c-.14-.15-.47-.12-.75-.19v2.06h.51A1.47,1.47,0,0,1,27,27c0,.34,0,.68,0,1a1.48,1.48,0,0,1-1.51,1.52h-.47L25,30h-1v-.48a1.77,1.77,0,0,1-1.75-.65,2,2,0,0,1-.25-1.33h1C23.14,28.51,23.23,28.59,24,28.5Zm0-3v-2c-.16,0-.31,0-.45,0a.5.5,0,0,0-.52.51,7.85,7.85,0,0,0,0,1,.5.5,0,0,0,.52.51Zm1,3a4.16,4.16,0,0,0,.5,0,.51.51,0,0,0,.47-.64c-.05-.47.31-1.12-.46-1.34a1.74,1.74,0,0,0-.51,0Z"
    transform="translate(-0.5 -0.48)"
  />
  <path
    d="M15.52,16.56a6.33,6.33,0,0,1-.91-.1,1.46,1.46,0,0,1-1.07-1.41v-1a1.48,1.48,0,0,1,1.52-1.52h.47l0-.48h1v.48a1.76,1.76,0,0,1,1.76.65,1.91,1.91,0,0,1,.24,1.33h-1c-.12-1-.21-1-1-1v2h.51A1.48,1.48,0,0,1,18.54,17c0,.34,0,.67,0,1A1.48,1.48,0,0,1,17,19.53h-.45l0,.48h-1l0-.49A1.76,1.76,0,0,1,13.86,19a1.8,1.8,0,0,1-.3-1.42h.89a2.27,2.27,0,0,0,.32.84c.13.16.47.13.75.19Zm0-1v-2h-.29c-.51,0-.68.17-.69.67,0,.26,0,.52,0,.78a.53.53,0,0,0,.55.55Zm1,3a4.09,4.09,0,0,0,.5,0,.51.51,0,0,0,.47-.64c-.05-.47.31-1.12-.46-1.34a1.74,1.74,0,0,0-.51,0Z"
    transform="translate(-0.5 -0.48)"
  />
</svg>
