<svg
  id="amigos_con_bn"
  data-name="amigos con bn"
  xmlns="http://www.w3.org/2000/svg"
  viewBox="0 0 24.05 30.14"
>
  <defs>
    <style>
      .cls-1 {
        fill: #e94273;
      }
      .cls-2 {
        fill: #187dc2;
      }
    </style>
  </defs>
  <path
    class="cls-1"
    d="M22.89,31.07h-3a5.13,5.13,0,0,1-5.13-5.13V16.49a1.83,1.83,0,0,1,1.82-1.82H26.2A1.82,1.82,0,0,1,28,16.49v9.45A5.13,5.13,0,0,1,22.89,31.07ZM16.55,15.81a.67.67,0,0,0-.68.68v9.45a4,4,0,0,0,4,4h3a4,4,0,0,0,4-4V16.49a.68.68,0,0,0-.69-.68Z"
    transform="translate(-3.98 -0.93)"
  />
  <path
    class="cls-1"
    d="M21.38,13.84a4.45,4.45,0,1,1,4.44-4.45A4.45,4.45,0,0,1,21.38,13.84Zm0-7.75a3.31,3.31,0,1,0,3.3,3.3A3.31,3.31,0,0,0,21.38,6.09Z"
    transform="translate(-3.98 -0.93)"
  />
  <path
    class="cls-2"
    d="M10.34,9.81a4.44,4.44,0,1,1,4.44-4.44A4.45,4.45,0,0,1,10.34,9.81Zm0-7.74a3.31,3.31,0,1,0,3.3,3.3A3.31,3.31,0,0,0,10.34,2.07Z"
    transform="translate(-3.98 -0.93)"
  />
  <path
    class="cls-2"
    d="M14.44,27.84H6.28A2.35,2.35,0,0,1,4,25.45V17.31a7,7,0,0,1,6.89-7.17,6.85,6.85,0,0,1,5.73,3.17l.59.93H15.07a1.19,1.19,0,0,0-1.16,1.21v9.76a6.28,6.28,0,0,0,.29,1.86ZM10.87,11.33a5.88,5.88,0,0,0-5.76,6v8.14a1.19,1.19,0,0,0,1.17,1.21h6.64a7.14,7.14,0,0,1-.15-1.45V15.45a2.36,2.36,0,0,1,2.15-2.39A5.61,5.61,0,0,0,10.87,11.33Z"
    transform="translate(-3.98 -0.93)"
  />
</svg>
