<svg
  xmlns="http://www.w3.org/2000/svg"
  height="1em"
  width="1em"
  fill="currentColor"
  viewBox="0 0 28.75 31.82"
>
  <path
    d="M15.38,31.91c-.2-.05-.4-.09-.59-.15a4.58,4.58,0,0,1-3.34-3.65l-.07-.3H5.25a3.59,3.59,0,0,1-.44-7.15l.28,0c.6-.05.64-.1.65-.72,0-2.11,0-4.22,0-6.33a9.9,9.9,0,0,1,3.6-7.45,9.24,9.24,0,0,1,3-1.73c.28-.1.21-.29.2-.47a3.5,3.5,0,1,1,7,0,.42.42,0,0,0,.3.53,10.45,10.45,0,0,1,6.39,8.31,10.86,10.86,0,0,1,.08,1.61c0,1.87,0,3.73,0,5.59,0,.54.07.62.62.66a3.72,3.72,0,0,1,3.43,2.95,3.6,3.6,0,0,1-2.85,4.17,4.08,4.08,0,0,1-.77.07h-6a14.69,14.69,0,0,1-.73,1.8,4.39,4.39,0,0,1-3.21,2.24.59.59,0,0,0-.14.06Zm.6-6.15H26.82a1.52,1.52,0,0,0,.28-3,3.19,3.19,0,0,0-.55-.06A2.46,2.46,0,0,1,24.2,20.1V14.2a8.39,8.39,0,0,0-.57-3.06A8.11,8.11,0,0,0,12.34,6.63a7.91,7.91,0,0,0-4.53,7.26c-.06,2.11,0,4.22,0,6.34A2.42,2.42,0,0,1,6,22.59a8.66,8.66,0,0,1-.89.12,1.59,1.59,0,0,0-1.35,1.23,1.44,1.44,0,0,0,.75,1.59,2.27,2.27,0,0,0,1,.22Zm2.49,2.07H13.52a2.52,2.52,0,0,0,4.95,0ZM14.57,3.74h2.85a1.36,1.36,0,0,0-.64-1.34,1.36,1.36,0,0,0-1.54,0A1.36,1.36,0,0,0,14.57,3.74Z"
    transform="translate(-1.62 -0.09)"
  />
  <path
    d="M2.69,12.41a1,1,0,0,1-1-1.21A13.73,13.73,0,0,1,4.75,5.05c.23-.28.48-.54.74-.8A1,1,0,1,1,7,5.7a12.08,12.08,0,0,0-3.12,5.39c0,.19-.09.38-.14.57A1,1,0,0,1,2.69,12.41Z"
    transform="translate(-1.62 -0.09)"
  />
  <path
    d="M29.27,12.41a1,1,0,0,1-1-.91A12,12,0,0,0,27.2,8.66a12.39,12.39,0,0,0-2.17-3,1,1,0,0,1-.27-1.05,1,1,0,0,1,.82-.72,1,1,0,0,1,.92.32,13.82,13.82,0,0,1,3.71,6.63,1.88,1.88,0,0,1,0,.85A1,1,0,0,1,29.27,12.41Z"
    transform="translate(-1.62 -0.09)"
  />
</svg>
