<svg
  xmlns="http://www.w3.org/2000/svg"
  height="1em"
  width="1em"
  fill="currentColor"
  data-name="modo Noche"
  viewBox="0 0 30.84 30.93"
>
  <path
    d="M16.31,31.47A15.84,15.84,0,0,1,10.33,1,6.77,6.77,0,0,1,11.62.56,1.27,1.27,0,0,1,13,1.19a1.45,1.45,0,0,1,0,1.6c-.42.74-.89,1.45-1.23,2.22a11.59,11.59,0,0,0,8.47,15.87,11.41,11.41,0,0,0,8.68-1.79,1.7,1.7,0,0,1,1.37-.35,1.44,1.44,0,0,1,1,1.91,14.83,14.83,0,0,1-2.37,4.48,15.48,15.48,0,0,1-9.51,6C18.39,31.3,17.35,31.35,16.31,31.47ZM29.62,20.53a13.14,13.14,0,0,1-5.44,2,13.18,13.18,0,0,1-10.75-3.44,13,13,0,0,1-4.08-8,13.07,13.07,0,0,1,2-8.78A14.19,14.19,0,1,0,29.62,20.53Z"
    transform="translate(-0.54 -0.54)"
  />
  <path
    d="M22.56,3.87a1,1,0,0,1,1,.79A5.45,5.45,0,0,0,25,7.08a5.19,5.19,0,0,0,2.12,1.25A1.2,1.2,0,0,1,28,9a1,1,0,0,1-.75,1.42,5.44,5.44,0,0,0-2.68,1.78,5.61,5.61,0,0,0-1,1.85,1,1,0,0,1-2,0,5.41,5.41,0,0,0-3.66-3.64,1,1,0,0,1,0-2A5.41,5.41,0,0,0,21.53,4.7,1,1,0,0,1,22.56,3.87Zm-3,5.51a7.32,7.32,0,0,1,3,3,7.26,7.26,0,0,1,3-3,7.26,7.26,0,0,1-3-3A7.26,7.26,0,0,1,19.58,9.38Z"
    transform="translate(-0.54 -0.54)"
  />
</svg>
