<svg
  xmlns="http://www.w3.org/2000/svg"
  viewBox="0 0 30.94 30.94"
  height="1em"
  width="1em"
>
  <path
    d="M16.08.53A15.47,15.47,0,1,0,31.47,16,15.47,15.47,0,0,0,16.08.53Zm9.83,24.53a9.38,9.38,0,0,0-4.8-6.67,2.31,2.31,0,0,0-2.44-.06,5.53,5.53,0,0,1-5.39,0,2.18,2.18,0,0,0-2.26,0,9.13,9.13,0,0,0-4.68,5.75c-.09.31-.17.61-.26.93C2,21.12.64,12.91,5.93,7a13.44,13.44,0,0,1,19.58-.6A13.34,13.34,0,0,1,25.91,25.06Z"
    transform="translate(-0.53 -0.53)"
    fill="currentColor"
  />
  <path
    d="M16,5.14a6.5,6.5,0,0,0-6.47,6.49A6.45,6.45,0,1,0,16,5.14Z"
    transform="translate(-0.53 -0.53)"
    fill="currentColor"
  />
</svg>
