<svg
  xmlns="http://www.w3.org/2000/svg"
  id="Polt._Priv"
  data-name="Polt. Priv"
  viewBox="0 0 30.51 30.51"
  width="1em"
  height="1em"
  fill="currentColor"
>
  <path
    d="M21.72.62c.16.07.33.13.48.21a1.79,1.79,0,0,1,1,1.63c0,2.21,0,4.43,0,6.64,0,.35-.18.54-.47.54s-.46-.2-.46-.59v-6c0-.16,0-.32,0-.49a1,1,0,0,0-1.05-1H8.57v.36c0,1.55,0,3.1,0,4.66A1.79,1.79,0,0,1,6.69,8.44c-1.55,0-3.1,0-4.66,0H1.68V29.27c0,.88.34,1.21,1.22,1.21H21.08c.86,0,1.2-.34,1.2-1.2,0-.44,0-.88,0-1.32a.36.36,0,0,0-.18-.28,12.57,12.57,0,0,1-3.24-2,.71.71,0,0,0-.43-.13H4.68c-.11,0-.22,0-.33,0a.43.43,0,0,1-.42-.43.45.45,0,0,1,.41-.47c.1,0,.2,0,.3,0H17.76a2.77,2.77,0,0,1-.19-.25c-.53-.76-1.08-1.51-1.6-2.28a.43.43,0,0,0-.42-.24H4.64a1.2,1.2,0,0,1-.33,0,.43.43,0,0,1-.38-.47.42.42,0,0,1,.43-.42h11l-.1-.27c-.23-.72-.49-1.44-.7-2.16-.07-.25-.15-.37-.43-.35s-.8,0-1.2,0H4.69a2.17,2.17,0,0,1-.36,0,.43.43,0,0,1-.4-.45.46.46,0,0,1,.43-.45,1.22,1.22,0,0,1,.27,0h9.66c0-.17,0-.31,0-.45a1.37,1.37,0,0,1,.84-1.47c.46-.24.9-.5,1.35-.75l0-.1H4.62a1.51,1.51,0,0,1-.3,0,.45.45,0,0,1,0-.89H17.08a.47.47,0,0,0,.49-.25,7.36,7.36,0,0,0,.65-1.24A1.81,1.81,0,0,1,20,10.71a22.82,22.82,0,0,1,6,.07,1.45,1.45,0,0,1,1.21,1.07,5.76,5.76,0,0,0,2.87,3.28c.17.09.35.16.51.26a1.29,1.29,0,0,1,.69,1.3,13.41,13.41,0,0,1-.85,3.52.76.76,0,0,1,0,.11.46.46,0,0,1-.59.27.45.45,0,0,1-.26-.61c.18-.56.38-1.12.52-1.69s.2-1.05.29-1.59a.5.5,0,0,0-.34-.59,6.76,6.76,0,0,1-3.69-4,.6.6,0,0,0-.55-.43,20.33,20.33,0,0,0-4.34-.17c-.58,0-1.16.12-1.73.18-.29,0-.41.24-.5.5A6.78,6.78,0,0,1,15.79,16c-.67.33-.68.33-.57,1.06A12.63,12.63,0,0,0,18,23.4a11.6,11.6,0,0,0,4.37,3.39.89.89,0,0,0,.78,0,12,12,0,0,0,5.42-4.88l.18-.31a.46.46,0,0,1,.64-.21.44.44,0,0,1,.14.67c-.55.8-1.07,1.63-1.69,2.37a11.57,11.57,0,0,1-4.39,3.21.33.33,0,0,0-.22.36,16.44,16.44,0,0,1-.06,1.86,1.79,1.79,0,0,1-1.79,1.51H2.61A1.87,1.87,0,0,1,.75,29.55v-.27q0-10.51,0-21a1,1,0,0,1,.33-.79L7.62.92,8,.62ZM7.65,2.36,2.5,7.51H6.76c.53,0,.89-.29.89-.76C7.66,5.26,7.65,3.77,7.65,2.36Z"
    transform="translate(-0.74 -0.62)"
  />
  <path
    d="M12,9.68H9c-.12,0-.28,0-.35,0a.9.9,0,0,1-.28-.45.38.38,0,0,1,.36-.4,1.83,1.83,0,0,1,.33,0h5.76c.48,0,.71.16.71.46s-.24.46-.71.46Z"
    transform="translate(-0.74 -0.62)"
  />
  <path
    d="M25.53,17.31l.91.26a.79.79,0,0,1,.62.94q-.11.9-.18,1.8a3.35,3.35,0,0,1-.56,1.79,2.94,2.94,0,0,1-.73.72l-2.05,1.45a.8.8,0,0,1-1,0c-.71-.5-1.43-1-2.14-1.52a2.77,2.77,0,0,1-1.16-2L19,18.43a.79.79,0,0,1,.57-.84l.9-.26c.07,0,.09,0,.09-.12a8.42,8.42,0,0,1,.05-1.74,2.48,2.48,0,0,1,4.86.06,2.92,2.92,0,0,1,0,.51C25.53,16.46,25.53,16.87,25.53,17.31Zm-6,1.09.06.6c.06.52.12,1,.16,1.57a2.32,2.32,0,0,0,.94,1.74c.71.52,1.44,1,2.17,1.54a.29.29,0,0,0,.35,0c.73-.52,1.46-1,2.18-1.55a2.19,2.19,0,0,0,.9-1.55c0-.34.08-.69.11-1s.09-.88.13-1.31c0-.21-.05-.28-.24-.33a18.75,18.75,0,0,1-2.84-1c-.49-.23-.35-.22-.83,0a18.75,18.75,0,0,1-2.84,1C19.6,18.13,19.54,18.2,19.54,18.4ZM25,17.14c0-.5,0-1,0-1.45a2,2,0,0,0-3.81-.2,8.89,8.89,0,0,0-.08,1.64l.15-.05,1.44-.61a.86.86,0,0,1,.75,0l.66.29C24.38,16.9,24.68,17,25,17.14Z"
    transform="translate(-0.74 -0.62)"
  />
  <path
    d="M23.71,19.81a.65.65,0,0,1-.31.53.16.16,0,0,0-.09.16,1.71,1.71,0,0,1,0,.32.26.26,0,0,1-.26.28.28.28,0,0,1-.27-.28v-.1a.45.45,0,0,0-.19-.47.61.61,0,0,1-.11-.78.65.65,0,0,1,.74-.31A.68.68,0,0,1,23.71,19.81Z"
    transform="translate(-0.74 -0.62)"
  />
</svg>
