<svg
  xmlns="http://www.w3.org/2000/svg"
  height="1em"
  width="1em"
  fill="currentColor"
  data-name="log out"
  viewBox="0 0 30.72 30.7"
>
  <path
    d="M.62,26.65V2.72a1.66,1.66,0,0,0,.06-.16A2.61,2.61,0,0,1,2.16.82a5.31,5.31,0,0,1,.56-.2H17.77a1.17,1.17,0,0,0,.2.06,3.78,3.78,0,0,1,3.09,3.46c.06,1.11,0,2.22,0,3.33a7.23,7.23,0,0,1,0,1,1.22,1.22,0,0,1-1,1,1.28,1.28,0,0,1-1.53-1.36c0-1.21,0-2.42,0-3.63a1.27,1.27,0,0,0-1.39-1.37H11.55a8.7,8.7,0,0,1,.89.53,2.65,2.65,0,0,1,1,2.24V24.89l.21,0h3.66a1.45,1.45,0,0,0,.29,0,1.27,1.27,0,0,0,.94-1.36V18.74a2.15,2.15,0,0,1,.08-.62,1.28,1.28,0,0,1,2.49.47q0,2.54,0,5.07a3.85,3.85,0,0,1-3.95,3.83c-.64,0-1.28,0-1.92,0h-1.8c0,.25,0,.48,0,.71a6.63,6.63,0,0,1-.07,1.1,2.56,2.56,0,0,1-3.42,1.88l-7.51-2.5A2.57,2.57,0,0,1,.67,26.75.31.31,0,0,0,.62,26.65Z"
    transform="translate(-0.62 -0.62)"
  />
  <path
    d="M2.72.62a5.31,5.31,0,0,0-.56.2A2.61,2.61,0,0,0,.68,2.56a1.66,1.66,0,0,1-.06.16V.62Z"
    transform="translate(-0.62 -0.62)"
  />
  <path
    d="M23.65,12.13V8.44a2.54,2.54,0,0,1,0-.39,1.29,1.29,0,0,1,2.06-.76,3.45,3.45,0,0,1,.28.26l4.81,4.82a1.3,1.3,0,0,1,0,2.08l-4.92,4.92a1.29,1.29,0,0,1-1.91,0,1.2,1.2,0,0,1-.35-.9V14.7h-.34c-1.57,0-3.14,0-4.71,0a1.29,1.29,0,0,1-1.31-1,1.27,1.27,0,0,1,1.22-1.6h5.14Z"
    transform="translate(-0.62 -0.62)"
  />
</svg>
