<svg
  xmlns="http://www.w3.org/2000/svg"
  id="vincular"
  viewBox="0 0 30.3 30.3"
  width="1em"
  height="1em"
  fill="currentColor"
>
  <path
    d="M20.28,17.66a6.46,6.46,0,0,1-1.76,4.59c-2.41,2.47-4.83,4.94-7.31,7.33A5.8,5.8,0,0,1,5.06,31,5.84,5.84,0,0,1,1,26.16,6,6,0,0,1,2.7,20.77c2.1-2.15,4.23-4.26,6.36-6.38a1,1,0,0,1,1.52-.08,1,1,0,0,1-.07,1.53C8.43,17.92,6.36,20,4.27,22.08a4.39,4.39,0,0,0-1.34,2.71,4,4,0,0,0,3.16,4.26,4.2,4.2,0,0,0,4-1.2q3.42-3.41,6.82-6.83a4.2,4.2,0,0,0,1.35-2.93,4,4,0,0,0-2-3.68,1.08,1.08,0,0,1-.62-.79,1,1,0,0,1,.41-1,1,1,0,0,1,1.11,0,5.92,5.92,0,0,1,3,3.79C20.19,16.86,20.23,17.38,20.28,17.66Z"
    transform="translate(-0.85 -0.67)"
  />
  <path
    d="M24.34.67c3.76,0,6.22,2.06,6.72,5.06a5.76,5.76,0,0,1-1.56,5.14c-2.16,2.24-4.38,4.42-6.57,6.62A1,1,0,1,1,21.5,16l6.26-6.27A4.1,4.1,0,0,0,29.1,6.63,3.85,3.85,0,0,0,26.67,3a3.77,3.77,0,0,0-4.34.73q-3.79,3.68-7.45,7.46a4,4,0,0,0,.81,6.25,1.15,1.15,0,0,1,.62.87,1,1,0,0,1-1.53,1,5.85,5.85,0,0,1-3-4.73,6.11,6.11,0,0,1,1.89-5.1l7-6.92A5.87,5.87,0,0,1,24.34.67Z"
    transform="translate(-0.85 -0.67)"
  />
  <path
    d="M4.14,9.4a10.84,10.84,0,0,1,2.47,1.1.94.94,0,0,1,.16,1.24,1,1,0,0,1-1.19.45c-.7-.27-1.39-.56-2.07-.88A1,1,0,0,1,3,10.18,1,1,0,0,1,4.14,9.4Z"
    transform="translate(-0.85 -0.67)"
  />
  <path
    d="M27.82,22.54a12.91,12.91,0,0,1-2.41-1.09.94.94,0,0,1-.17-1.24,1,1,0,0,1,1.22-.44c.67.26,1.33.54,2,.83A1,1,0,0,1,29,21.74,1.07,1.07,0,0,1,27.82,22.54Z"
    transform="translate(-0.85 -0.67)"
  />
  <path
    d="M20.81,25.08a.93.93,0,0,1,.86.59c.28.64.56,1.29.82,1.95a1,1,0,0,1-1.87.81c-.29-.66-.57-1.32-.82-2A1,1,0,0,1,20.81,25.08Z"
    transform="translate(-0.85 -0.67)"
  />
  <path
    d="M26.24,25.15a1.1,1.1,0,0,1-.64.93A.92.92,0,0,1,24.53,26c-.55-.52-1.09-1.07-1.61-1.63a1,1,0,0,1,1.43-1.42q.84.78,1.62,1.62A2.33,2.33,0,0,1,26.24,25.15Z"
    transform="translate(-0.85 -0.67)"
  />
  <path
    d="M6.88,5.69a3.34,3.34,0,0,1,.67.38c.5.46,1,.95,1.44,1.44A1,1,0,0,1,9,9,1,1,0,0,1,7.56,9c-.5-.47-1-1-1.47-1.45a1,1,0,0,1-.2-1.12A1.16,1.16,0,0,1,6.88,5.69Z"
    transform="translate(-0.85 -0.67)"
  />
  <path
    d="M11.17,6.87a1,1,0,0,1-.85-.59c-.27-.63-.54-1.26-.79-1.9a1,1,0,0,1,.55-1.29,1,1,0,0,1,1.33.51c.28.62.54,1.25.78,1.88A1,1,0,0,1,11.17,6.87Z"
    transform="translate(-0.85 -0.67)"
  />
</svg>
