<svg
  id="Facebook"
  xmlns="http://www.w3.org/2000/svg"
  viewBox="0 0 30.81 30.81"
  height="1em"
  width="1em"
  fill="currentColor"
>
  <path
    d="M31.26,13.86a14.65,14.65,0,0,0-4.8-9.19A15.11,15.11,0,0,0,18.69.82L17.55.66,17,.59H15l-.51.07L13.33.82A15.08,15.08,0,0,0,5.55,4.68,15.24,15.24,0,0,0,.74,13.85c0,.26-.07.51-.1.77L.6,15v2l0,.1a1.13,1.13,0,0,1,0,.18c0,.17,0,.35.07.52,0,.36.08.72.15,1.08a15.16,15.16,0,0,0,5.67,9.24,15,15,0,0,0,9.38,3.25,15.65,15.65,0,0,0,2.25-.15,14.18,14.18,0,0,0,6.88-2.79A15,15,0,0,0,31.26,13.86ZM29.71,16A13.73,13.73,0,0,1,16.06,29.7H16A13.71,13.71,0,0,1,6.36,6.26,13.55,13.55,0,0,1,16,2.3H16A13.75,13.75,0,0,1,25.8,6.4,13.46,13.46,0,0,1,29.71,16Z"
    transform="translate(-0.6 -0.59)"
  />
  <path
    d="M11.57,13.07h2c0-.8,0-1.57,0-2.34.07-2.06,1-3.18,3-3.46a34.35,34.35,0,0,1,3.82-.16v3.06c-.64,0-1.27,0-1.9,0-.78,0-.95.21-1,1,0,.62,0,1.24,0,1.9h2.93l-.33,3H17.48v8.86h-4V16.05h-2Z"
    transform="translate(-0.6 -0.59)"
  />
</svg>
