<svg id="cigarro" xmlns="http://www.w3.org/2000/svg" viewBox="0 0 27.52 17.63">
  <defs>
    <style>
      .cls-1 {
        fill: #e94273;
      }
    </style>
  </defs>
  <path
    class="cls-1"
    d="M28.88,14.39a6.06,6.06,0,0,0,.1-1.12,2.56,2.56,0,0,0-1.35-2.14,1.35,1.35,0,0,1-.77-1.49,1.29,1.29,0,0,1,1.73-1,.8.8,0,0,0,.95-.06.71.71,0,0,0-.17-1.14,2.72,2.72,0,0,0-2.49,4.84,1.3,1.3,0,0,1-.9,2.43,3.9,3.9,0,0,1-.57-.21,2.71,2.71,0,0,0-2.64,4.67,2.89,2.89,0,0,0,.44.27.68.68,0,0,0,.92-.27.7.7,0,0,0-.26-.95,1.3,1.3,0,0,1-.73-1.2A1.29,1.29,0,0,1,25,15.88a2.76,2.76,0,0,0,3.06-.3,6.53,6.53,0,0,0,.52-.53Z"
    transform="translate(-2.24 -7.18)"
  />
  <path
    class="cls-1"
    d="M2.75,14.91a.74.74,0,0,1-.36-1.16c.42-.82.86-1.63,1.26-2.46a.79.79,0,0,1,1.17-.38l18.93,9.76a.75.75,0,0,1,.38,1.17l-1.26,2.44a.76.76,0,0,1-1.2.38L12.23,19.8Zm17.1,7.21.75-1.45-10-5.15L9.86,17ZM9.34,14.86,4.65,12.45,3.9,13.9l4.69,2.41Zm12.53,6.45-.75,1.46.72.38.76-1.46Z"
    transform="translate(-2.24 -7.18)"
  />
  <path
    class="cls-1"
    d="M21.12,10.82a2.26,2.26,0,0,0,.91,3,.71.71,0,0,0,.95-.19.7.7,0,0,0-.18-1,2.92,2.92,0,0,1-.28-.21.84.84,0,0,1,1-1.35.7.7,0,0,0,.89-.22.66.66,0,0,0-.06-.88,1.4,1.4,0,0,0-.5-.29A2.27,2.27,0,0,0,21.12,10.82Z"
    transform="translate(-2.24 -7.18)"
  />
</svg>
