<svg
  xmlns="http://www.w3.org/2000/svg"
  viewBox="0 0 31.22 25"
  height="1em"
  width="1em"
>
  <path
    d="M31.61,7.83a1.21,1.21,0,0,1-1.27.73c-1.63,0-3.27,0-4.9,0a.33.33,0,0,0-.38.28,4.06,4.06,0,0,1-7.71,0c-.08-.25-.21-.29-.44-.29H1.59A1.83,1.83,0,0,1,1,8.45a1,1,0,0,1,.24-1.84,2.58,2.58,0,0,1,.48,0H16.81a.48.48,0,0,0,.57-.39,4.05,4.05,0,0,1,7.67.1.36.36,0,0,0,.41.29c1.61,0,3.23,0,4.84,0a1.25,1.25,0,0,1,1.31.72ZM21.19,9.67A2.11,2.11,0,1,0,19.1,7.58,2.09,2.09,0,0,0,21.19,9.67Z"
    transform="translate(-0.39 -3.5)"
  />
  <path
    d="M31.61,24.72a1.24,1.24,0,0,1-1.28.72c-1.62,0-3.25,0-4.87,0a.34.34,0,0,0-.41.28,4.06,4.06,0,0,1-7.71,0c-.08-.24-.19-.27-.41-.27H1.69a3,3,0,0,1-.42,0,1,1,0,0,1-.87-1,1,1,0,0,1,.91-1h15.6c.23,0,.36-.05.44-.29a4,4,0,0,1,3.84-2.79,4,4,0,0,1,3.87,2.8.33.33,0,0,0,.38.28c1.63,0,3.27,0,4.9,0a1.23,1.23,0,0,1,1.27.73ZM19.1,24.43a2.1,2.1,0,1,0,2.13-2.09A2.11,2.11,0,0,0,19.1,24.43Z"
    transform="translate(-0.39 -3.5)"
  />
  <path
    d="M31.61,16.25a1.15,1.15,0,0,1-1.22.74c-5.1,0-10.2,0-15.3,0a.37.37,0,0,0-.43.3,4.06,4.06,0,0,1-3.89,2.81,4.1,4.1,0,0,1-3.85-2.89L6.84,17H1.42a1,1,0,0,1-1-1,1,1,0,0,1,1-1C3.1,15,4.8,15,6.5,15A.4.4,0,0,0,7,14.71a4.05,4.05,0,0,1,7.7,0c.08.27.21.3.45.3,5.05,0,10.1,0,15.15,0a1.33,1.33,0,0,1,1.35.68ZM10.8,13.91a2.1,2.1,0,1,0,0,4.19,2.1,2.1,0,0,0,0-4.19Z"
    transform="translate(-0.39 -3.5)"
  />
</svg>
