<svg id="Esp" xmlns="http://www.w3.org/2000/svg" viewBox="0 0 30.94 20.29">
  <defs>
    <style>
      .cls-1 {
        fill: #ffd352;
      }
      .cls-2 {
        fill: #c9424c;
      }
      .cls-3 {
        fill: #f5f5f5;
      }
      .cls-4 {
        fill: #c9434c;
      }
      .cls-5 {
        fill: #f9b549;
      }
      .cls-6 {
        fill: #f5f4f4;
      }
      .cls-7 {
        fill: #c9444c;
      }
      .cls-8 {
        fill: #c9434d;
      }
      .cls-9 {
        fill: #5366ab;
      }
      .cls-10 {
        fill: #f9b349;
      }
      .cls-11 {
        fill: #f5f5f4;
      }
      .cls-12 {
        fill: #c9444d;
      }
      .cls-13 {
        fill: #f9b54a;
      }
      .cls-14 {
        fill: #f8b449;
      }
      .cls-15 {
        fill: #ca454c;
      }
      .cls-16 {
        fill: #f9b54b;
      }
      .cls-17 {
        fill: #db7663;
      }
      .cls-18 {
        fill: #fed054;
      }
      .cls-19 {
        fill: #f9ca72;
      }
      .cls-20 {
        fill: #fad899;
      }
      .cls-21 {
        fill: #f0dcd2;
      }
      .cls-22 {
        fill: #f3dfce;
      }
      .cls-23 {
        fill: #f9b448;
      }
      .cls-24 {
        fill: #5165ab;
      }
      .cls-25 {
        fill: #f3a2c7;
      }
      .cls-26 {
        fill: #fece52;
      }
      .cls-27 {
        fill: #ffd152;
      }
      .cls-28 {
        fill: #fed157;
      }
      .cls-29 {
        fill: #fed25a;
      }
      .cls-30 {
        fill: #fed257;
      }
      .cls-31 {
        fill: #f9b449;
      }
      .cls-32 {
        fill: #cb484c;
      }
    </style>
  </defs>
  <path
    class="cls-1"
    d="M31.46,10.14c0,.7,0,1.4,0,2.11V21.5c0,.12,0,.24,0,.37a.57.57,0,0,1-.4.09H1.14a.88.88,0,0,1-.61-.1V10.14A.5.5,0,0,1,.84,10h30A.8.8,0,0,1,31.46,10.14Z"
    transform="translate(-0.53 -5.86)"
  />
  <path
    class="cls-2"
    d="M31.46,10.14H.53V6.27a.7.7,0,0,1,.73-.41H30.73c.55,0,.74.19.74.74C31.47,7.78,31.46,9,31.46,10.14Z"
    transform="translate(-0.53 -5.86)"
  />
  <path
    class="cls-2"
    d="M.53,21.86H31.46c0,1.22,0,2.45,0,3.68a.54.54,0,0,1-.53.58H1.32a.74.74,0,0,1-.79-.41Z"
    transform="translate(-0.53 -5.86)"
  />
  <path
    class="cls-2"
    d="M5.06,16.55c-.2,0-.26-.08-.26-.28s.06-.3.27-.28a1.52,1.52,0,0,1,1.07,0c.79,0,.8,0,.79-.76,0-.36,0-.7.43-.81.61,0,1.22-.12,1.83-.09a.63.63,0,0,1,.4.09h0a.3.3,0,0,1,.08.22,13,13,0,0,1,0,1.53.67.67,0,0,1-.63.29A3.38,3.38,0,0,0,8.79,16a.43.43,0,0,1,.05-.55.29.29,0,0,0,.1-.3C8.88,15,8.76,15,8.65,15H7.84c-.09,0-.19,0-.24.09a.27.27,0,0,0,.05.28.49.49,0,0,1,0,.72c-.14.2-.08.35.16.36s.52,0,.78,0a.62.62,0,0,1,.38.06.48.48,0,0,1-.26.57c-.51,0-1,0-1.52,0A.3.3,0,0,1,7,17c0-.48,0-.48-.54-.48H6.14A1.44,1.44,0,0,1,5.06,16.55Z"
    transform="translate(-0.53 -5.86)"
  />
  <path
    class="cls-3"
    d="M9.6,16.25V14.43h2c.44,0,.61.18.62.62s0,.64,0,1a.52.52,0,0,1,0,.54l0,.53a.28.28,0,0,1-.24.1,11.48,11.48,0,0,1-1.55,0,.22.22,0,0,1-.15-.17.79.79,0,0,0-.58-.62A.18.18,0,0,1,9.6,16.25Z"
    transform="translate(-0.53 -5.86)"
  />
  <path
    class="cls-4"
    d="M11.7,13.4l-.48.47a.35.35,0,0,1-.3.11H8.3a.37.37,0,0,1-.28-.1L7.5,13.4c-.11-.26.16-.3.24-.45s.29-.24.44-.34a3.79,3.79,0,0,1,.65-.29,1.36,1.36,0,0,1,.36-.09,2,2,0,0,1,.81,0,1.19,1.19,0,0,1,.36.09,3.69,3.69,0,0,1,.64.29,3.79,3.79,0,0,1,.45.34C11.54,13.1,11.8,13.15,11.7,13.4Z"
    transform="translate(-0.53 -5.86)"
  />
  <path
    class="cls-4"
    d="M10.41,17.07h1.84c0,.44,0,.88,0,1.32a1.55,1.55,0,0,1-.55,1.12,1.38,1.38,0,0,1-.39.23,1.43,1.43,0,0,1-1.79-1.07,1.81,1.81,0,0,1,0-.77.69.69,0,0,1,.61-.21c.12.23,0,.49.07.74a.71.71,0,0,0,.45.62.66.66,0,0,0,.7-.12.68.68,0,0,0,.24-.56c0-.82.07-.7-.66-.72a1.73,1.73,0,0,1-.75,0A.59.59,0,0,1,10.41,17.07Z"
    transform="translate(-0.53 -5.86)"
  />
  <path
    class="cls-3"
    d="M9.59,18.7l.08.12a1.35,1.35,0,0,0,1.67.86c.06,0,.13-.05.13.06a3,3,0,0,1-1.87.52,3,3,0,0,1-1.88-.52c0-.08,0-.09.11-.11H8a.66.66,0,0,0,.44,0h.08A.77.77,0,0,0,9,19.4a1.42,1.42,0,0,0,.43-.57C9.48,18.77,9.5,18.7,9.59,18.7Z"
    transform="translate(-0.53 -5.86)"
  />
  <path
    class="cls-5"
    d="M8,13.88h3.2c0,.5,0,.49-.48.5a4,4,0,0,0-1.15.05H7.36a.24.24,0,0,1,.2-.05C8,14.35,8,14.35,8,13.88Z"
    transform="translate(-0.53 -5.86)"
  />
  <path
    class="cls-6"
    d="M11.7,13.4c0-.21-.23-.26-.3-.42-.05-.35-.05-.35-.42-.32l-.61-.28c-.08-.1-.12-.22-.27-.26-.33-.08-.39-.38-.14-.65a.84.84,0,0,1,.88.45c.05.1.11.11.21.1a.8.8,0,0,1,.88.49A.73.73,0,0,1,11.7,13.4Z"
    transform="translate(-0.53 -5.86)"
  />
  <path
    class="cls-6"
    d="M8.82,12.38l-.6.28c-.38,0-.38,0-.42.32-.07.16-.31.2-.3.42a.76.76,0,0,1-.22-.92A.78.78,0,0,1,8.14,12c.16,0,.18-.06.24-.15a.75.75,0,0,1,.92-.36.52.52,0,0,1,0,.54C9.11,12.1,8.89,12.12,8.82,12.38Z"
    transform="translate(-0.53 -5.86)"
  />
  <path
    class="cls-6"
    d="M5.07,19.2V18.06a1.5,1.5,0,0,1,1.07-.36v1.49A1.23,1.23,0,0,1,5.07,19.2Z"
    transform="translate(-0.53 -5.86)"
  />
  <path
    class="cls-6"
    d="M14.13,18.06V19.2a1.34,1.34,0,0,1-1,0,14.17,14.17,0,0,1,0-1.46s0-.09.06-.08A1.65,1.65,0,0,1,14.13,18.06Z"
    transform="translate(-0.53 -5.86)"
  />
  <path
    class="cls-7"
    d="M8,19.68H7.85a.88.88,0,0,1-.32-.12l-.06-.06a.21.21,0,0,1,0-.11,12.78,12.78,0,0,1,0-2.23.35.35,0,0,1,0-.08c.56-.07.58-.06.58.5v1.74A.47.47,0,0,1,8,19.68Z"
    transform="translate(-0.53 -5.86)"
  />
  <path
    class="cls-8"
    d="M12.27,16.54V16h.79a1.52,1.52,0,0,1,1.07,0c.16,0,.3,0,.29.24s-.05.34-.29.32a1.46,1.46,0,0,1-1.07,0Z"
    transform="translate(-0.53 -5.86)"
  />
  <path
    class="cls-9"
    d="M14.67,19.75c0,.52,0,.52-.52.52H12.8c-.21,0-.26-.06-.27-.27s.06-.29.27-.26a1.93,1.93,0,0,0,.24,0A3.22,3.22,0,0,1,14.67,19.75Z"
    transform="translate(-0.53 -5.86)"
  />
  <path
    class="cls-9"
    d="M6.45,19.73c.29,0,.19.2.21.35s-.12.19-.25.19H4.79c-.13,0-.28,0-.26-.19s-.06-.38.24-.35A3.67,3.67,0,0,1,6.45,19.73Z"
    transform="translate(-0.53 -5.86)"
  />
  <path
    class="cls-10"
    d="M7.48,17.09c0,.8,0,1.61,0,2.41a1.32,1.32,0,0,1-.53-1.06c0-.45,0-.91,0-1.36A1.1,1.1,0,0,1,7.48,17.09Z"
    transform="translate(-0.53 -5.86)"
  />
  <path
    class="cls-11"
    d="M14.13,16H13.06c0-.23,0-.46,0-.68s0-.39.33-.37a.47.47,0,0,1,.46,0c.25,0,.32.11.29.34S14.13,15.75,14.13,16Z"
    transform="translate(-0.53 -5.86)"
  />
  <path
    class="cls-11"
    d="M6.14,16H5.07c0-.24,0-.47,0-.71s0-.35.29-.34a.59.59,0,0,1,.52,0c.19,0,.3.07.28.3A6.26,6.26,0,0,0,6.14,16Z"
    transform="translate(-0.53 -5.86)"
  />
  <path
    class="cls-12"
    d="M14.13,18.06l-1-.36s0,0-.05,0c-.32-.06-.26-.3-.23-.5s.17,0,.25-.05a1.88,1.88,0,0,1,1.07.36c.15.05.29.1.29.33S14.37,18.15,14.13,18.06Z"
    transform="translate(-0.53 -5.86)"
  />
  <path
    class="cls-13"
    d="M13.84,14.94a1.19,1.19,0,0,1-.46,0l-.17,0c-.2,0-.43.09-.42-.28s.26-.23.44-.26.51,0,.77-.07a.2.2,0,0,0,.18.07c.26,0,.24.16.25.33s-.12.22-.27.21A.71.71,0,0,0,13.84,14.94Z"
    transform="translate(-0.53 -5.86)"
  />
  <path
    class="cls-14"
    d="M14.67,19.75l-1.63,0a.49.49,0,0,1,.06-.29.23.23,0,0,1,0-.24h1.05C14.68,19.21,14.68,19.21,14.67,19.75Z"
    transform="translate(-0.53 -5.86)"
  />
  <path
    class="cls-6"
    d="M5.06,16.55H6.14v.59c-.21.29-.57.25-.85.38-.07,0-.16.06-.22,0Z"
    transform="translate(-0.53 -5.86)"
  />
  <path
    class="cls-14"
    d="M6.45,19.73H4.77a.4.4,0,0,0,.05-.28c0-.2.07-.27.25-.25H6.13c.21,0,.29.08.26.28A.4.4,0,0,0,6.45,19.73Z"
    transform="translate(-0.53 -5.86)"
  />
  <path
    class="cls-13"
    d="M5.87,14.94a1.51,1.51,0,0,1-.52,0l-.21,0c-.13,0-.32.08-.32-.18s-.05-.4.26-.37c.08,0,.1-.06.11-.12.24.16.52.07.78.13s.41-.14.43.21-.05.38-.33.33A.64.64,0,0,0,5.87,14.94Z"
    transform="translate(-0.53 -5.86)"
  />
  <path
    class="cls-6"
    d="M14.13,17.5l-1.07-.36v-.59h1.07Z"
    transform="translate(-0.53 -5.86)"
  />
  <path
    class="cls-4"
    d="M5.07,17.5l1.07-.36c.08,0,.22-.14.24,0s.11.34-.08.46l-.17.07a10.34,10.34,0,0,0-1.07.36c-.08,0-.22.14-.24,0s-.1-.34.08-.46Z"
    transform="translate(-0.53 -5.86)"
  />
  <path
    class="cls-15"
    d="M6,14.37c-.27,0-.57.21-.78-.13a.49.49,0,0,0,0-.12c0-.17-.08-.35.1-.46a.67.67,0,0,1,.63,0c.14.07.14.2.13.34S6,14.24,6,14.37Z"
    transform="translate(-0.53 -5.86)"
  />
  <path
    class="cls-15"
    d="M14,14.3c-.24.22-.51.11-.77.07l-.06-.27c-.07-.35.06-.51.43-.51s.5.15.42.53A1,1,0,0,0,14,14.3Z"
    transform="translate(-0.53 -5.86)"
  />
  <path
    class="cls-16"
    d="M10,12.3a3,3,0,0,0-.85,0c0-.08,0-.12.09-.16.14-.19,0-.42.09-.63s0-.32.23-.3.36,0,.31.25A1,1,0,0,0,10,12.3Z"
    transform="translate(-0.53 -5.86)"
  />
  <path
    class="cls-17"
    d="M7.48,17.09H6.94A.13.13,0,0,1,7,17h1.8a.11.11,0,0,1,0,.11.71.71,0,0,0-.08.43v1.71a.56.56,0,0,1-.09.4H8.51c-.11-.11-.09-.25-.09-.39,0-.56,0-1.11,0-1.66a1.29,1.29,0,0,0,0-.28c0-.08,0-.16-.15-.15s-.11.08-.12.15a1.29,1.29,0,0,0,0,.28V19.3a.5.5,0,0,1-.1.39H8c0-.7,0-1.4,0-2.1C8,17,8.05,17.09,7.48,17.09Z"
    transform="translate(-0.53 -5.86)"
  />
  <path
    class="cls-18"
    d="M10,12.3c-.21-.13-.26-.46-.13-.83H10c-.13.15-.06.32-.07.49s0,.09.13.08c.3,0,.36,0,.35.34Z"
    transform="translate(-0.53 -5.86)"
  />
  <path
    class="cls-19"
    d="M13.1,19.2v.24c-.12-.18,0-.38-.06-.58,0-.39,0-.78,0-1.17h.05C13.1,18.2,13.1,18.7,13.1,19.2Z"
    transform="translate(-0.53 -5.86)"
  />
  <path
    class="cls-20"
    d="M9.35,11.52c0,.25.08.5-.06.73,0-.05-.1-.1-.06-.18s0-.37.07-.55Z"
    transform="translate(-0.53 -5.86)"
  />
  <path
    class="cls-21"
    d="M11.47,19.74s-.08,0-.13-.06l.37-.17C11.68,19.64,11.57,19.68,11.47,19.74Z"
    transform="translate(-0.53 -5.86)"
  />
  <path
    class="cls-22"
    d="M7.53,19.56c.13,0,.22.07.32.12s-.1,0-.13.06A.31.31,0,0,1,7.53,19.56Z"
    transform="translate(-0.53 -5.86)"
  />
  <path
    class="cls-23"
    d="M9,16.54H7.7c-.1,0-.23,0-.21-.13s-.09-.3.08-.41a.31.31,0,0,0,0-.55c-.18-.1-.08-.26-.09-.4s.12-.13.22-.13H8.84c.1,0,.23,0,.21.14s.1.34-.1.39-.13.19-.14.3,0,.21.13.26.07.31.12.47S9.05,16.56,9,16.54Z"
    transform="translate(-0.53 -5.86)"
  />
  <path
    class="cls-24"
    d="M9,16.54l.07-.06a1.18,1.18,0,0,1,.54-.23.87.87,0,0,1,.81.82,1.11,1.11,0,0,1-.2.52.09.09,0,0,1-.08.09,1.27,1.27,0,0,1-.53.2c-.21.11-.35-.05-.51-.14a.7.7,0,0,1-.34-.66v0Z"
    transform="translate(-0.53 -5.86)"
  />
  <path
    class="cls-25"
    d="M11.47,15.75c0,.28,0,.59-.34.73a.49.49,0,0,1-.68-.29,1.48,1.48,0,0,1,0-.86.49.49,0,0,1,.54-.39.52.52,0,0,1,.5.51Z"
    transform="translate(-0.53 -5.86)"
  />
  <path
    class="cls-26"
    d="M8.52,13.59a.25.25,0,0,1-.25-.24.25.25,0,0,1,.26-.27.23.23,0,0,1,.26.24A.25.25,0,0,1,8.52,13.59Z"
    transform="translate(-0.53 -5.86)"
  />
  <path
    class="cls-27"
    d="M10.93,13.32c0,.18-.12.27-.28.27a.24.24,0,0,1-.24-.26.22.22,0,0,1,.24-.24A.25.25,0,0,1,10.93,13.32Z"
    transform="translate(-0.53 -5.86)"
  />
  <path
    class="cls-27"
    d="M9.85,13.34a.24.24,0,0,1-.25.24.23.23,0,0,1-.25-.27.22.22,0,0,1,.26-.22C9.77,13.09,9.84,13.18,9.85,13.34Z"
    transform="translate(-0.53 -5.86)"
  />
  <path
    class="cls-28"
    d="M9.23,12.07l.06.18-.12.06-.35.07C8.82,12,8.92,12,9.23,12.07Z"
    transform="translate(-0.53 -5.86)"
  />
  <path
    class="cls-29"
    d="M7.8,13c-.09-.13-.11-.27,0-.37a.25.25,0,0,1,.39.05Z"
    transform="translate(-0.53 -5.86)"
  />
  <path
    class="cls-30"
    d="M11,12.66a.25.25,0,0,1,.39-.05.25.25,0,0,1,0,.37Z"
    transform="translate(-0.53 -5.86)"
  />
  <path
    class="cls-23"
    d="M10.13,17.68l.08-.09h1.27c.18,0,.25.05.24.24s0,.4,0,.6a.8.8,0,0,1-.77.78.82.82,0,0,1-.81-.74C10.12,18.2,10.13,17.94,10.13,17.68Z"
    transform="translate(-0.53 -5.86)"
  />
  <path
    class="cls-10"
    d="M9.1,17.68a1.28,1.28,0,0,0,.5.2c0,.27,0,.55,0,.82a1.48,1.48,0,0,1-.53.75s0,0,0,0a3.9,3.9,0,0,1,0-1.7S9.07,17.7,9.1,17.68Z"
    transform="translate(-0.53 -5.86)"
  />
  <path
    class="cls-31"
    d="M8,19.69c0-.78,0-1.56,0-2.34,0-.19,0-.27.25-.27s.24.08.24.27v2.34A.69.69,0,0,1,8,19.69Z"
    transform="translate(-0.53 -5.86)"
  />
  <path
    class="cls-7"
    d="M9.1,17.68a13.08,13.08,0,0,0,0,1.77.78.78,0,0,1-.49.23V17.34c0-.13,0-.27.18-.26A1.4,1.4,0,0,0,9.1,17.68Z"
    transform="translate(-0.53 -5.86)"
  />
  <path
    class="cls-32"
    d="M10.68,18.33c0-.19.08-.22.24-.21s.31,0,.29.19-.07.35-.29.34S10.67,18.51,10.68,18.33Z"
    transform="translate(-0.53 -5.86)"
  />
</svg>
