<svg id="port" xmlns="http://www.w3.org/2000/svg" viewBox="0 0 31.11 20.71">
  <defs>
    <style>
      .cls-1 {
        fill: #ea4d58;
      }
      .cls-2 {
        fill: #72b02d;
      }
      .cls-3 {
        fill: #ffe15b;
      }
      .cls-4 {
        fill: #f5f5f5;
      }
      .cls-5 {
        fill: #fedb5c;
      }
      .cls-6 {
        fill: #fedb5b;
      }
      .cls-7 {
        fill: #fedd5b;
      }
      .cls-8 {
        fill: #ffdf5b;
      }
      .cls-9 {
        fill: #454b9a;
      }
      .cls-10 {
        fill: #424999;
      }
      .cls-11 {
        fill: #434999;
      }
    </style>
  </defs>
  <path
    class="cls-1"
    d="M31.55,6.22V25.78c-.11.43-.23.54-.69.56H12.33c-.23,0-.47,0-.68-.1a.61.61,0,0,1-.1-.37c0-1.6,0-3.2,0-4.79a.77.77,0,0,1,0-.15c.07-.22.24-.27.45-.28a4.67,4.67,0,0,0,.44-9.27,3.86,3.86,0,0,0-.49-.06.39.39,0,0,1-.4-.26,2.63,2.63,0,0,1,0-.49V6.34a1.05,1.05,0,0,1,.1-.58A.41.41,0,0,1,12,5.65c.18,0,.36,0,.55,0H30.32c.18,0,.36,0,.54,0C31.31,5.68,31.44,5.78,31.55,6.22Z"
    transform="translate(-0.45 -5.65)"
  />
  <path
    class="cls-2"
    d="M11.69,26.19h-10c-.22,0-.44,0-.67,0a.56.56,0,0,1-.61-.62V6.42c0-.44.21-.63.71-.63H11.69v5.37c0,.18-.21.15-.35.17a4.57,4.57,0,0,0-3,1.4,4.68,4.68,0,0,0,1.68,7.63,6.08,6.08,0,0,0,1.33.29c.13,0,.27,0,.32.17Z"
    transform="translate(-0.45 -5.65)"
  />
  <path
    class="cls-3"
    d="M11.7,20.83a5.15,5.15,0,0,1-2.58-.77A4.81,4.81,0,0,1,11,11.25c.25,0,.5-.05.75-.08a5,5,0,0,1,2.54.72A4.86,4.86,0,0,1,16.43,17a4.8,4.8,0,0,1-4,3.76C12.21,20.79,12,20.8,11.7,20.83Z"
    transform="translate(-0.45 -5.65)"
  />
  <path
    class="cls-1"
    d="M11.71,13.32h2c.43,0,.65.19.65.62a25.16,25.16,0,0,1,0,2.88,2.51,2.51,0,0,1-1.76,2.23,2.55,2.55,0,0,1-2.85-.71A2.69,2.69,0,0,1,9,16.4V14c0-.52.19-.71.72-.71Z"
    transform="translate(-0.45 -5.65)"
  />
  <path
    class="cls-4"
    d="M11.74,14.38H13.1c.17,0,.23,0,.23.22,0,.66,0,1.32,0,2a1.61,1.61,0,0,1-3.21,0c0-.65,0-1.3,0-2,0-.18.05-.25.24-.24Z"
    transform="translate(-0.45 -5.65)"
  />
  <path
    class="cls-5"
    d="M12,13.85a.26.26,0,0,1-.27.26.26.26,0,1,1,0-.51A.26.26,0,0,1,12,13.85Z"
    transform="translate(-0.45 -5.65)"
  />
  <path
    class="cls-5"
    d="M14.12,13.84c0,.16-.1.27-.27.27a.24.24,0,0,1-.25-.25.23.23,0,0,1,.23-.26A.26.26,0,0,1,14.12,13.84Z"
    transform="translate(-0.45 -5.65)"
  />
  <path
    class="cls-6"
    d="M10.11,17.71a.25.25,0,0,1,.27.24.25.25,0,1,1-.5.05C9.86,17.84,10,17.75,10.11,17.71Z"
    transform="translate(-0.45 -5.65)"
  />
  <path
    class="cls-7"
    d="M13.32,18.24c-.16,0-.26-.12-.25-.28a.23.23,0,0,1,.25-.24.24.24,0,0,1,.25.27A.25.25,0,0,1,13.32,18.24Z"
    transform="translate(-0.45 -5.65)"
  />
  <path
    class="cls-8"
    d="M9.55,14.11a.25.25,0,0,1-.24-.26.24.24,0,0,1,.28-.25.23.23,0,0,1,.22.27A.24.24,0,0,1,9.55,14.11Z"
    transform="translate(-0.45 -5.65)"
  />
  <path
    class="cls-8"
    d="M13.9,16.25c-.2,0-.29-.09-.3-.24a.23.23,0,0,1,.23-.26.25.25,0,0,1,.07.5Z"
    transform="translate(-0.45 -5.65)"
  />
  <path
    class="cls-8"
    d="M9.81,16c0,.16-.07.26-.22.26s-.27-.07-.27-.24a.22.22,0,0,1,.24-.25A.22.22,0,0,1,9.81,16Z"
    transform="translate(-0.45 -5.65)"
  />
  <path
    class="cls-9"
    d="M11.13,16.13c0,.3-.05.51-.34.53s-.35-.18-.36-.55.27-.21.43-.24S11.16,16,11.13,16.13Z"
    transform="translate(-0.45 -5.65)"
  />
  <path
    class="cls-10"
    d="M11.74,17c.23,0,.34,0,.32.29s0,.48-.34.5-.32-.15-.35-.51S11.53,17,11.74,17Z"
    transform="translate(-0.45 -5.65)"
  />
  <path
    class="cls-11"
    d="M11.75,14.78c.25-.06.33,0,.31.3s-.13.51-.36.49-.31-.27-.33-.52S11.54,14.77,11.75,14.78Z"
    transform="translate(-0.45 -5.65)"
  />
  <path
    class="cls-11"
    d="M11.76,15.87c.25-.06.32.05.3.3s-.13.51-.36.49-.31-.27-.33-.51S11.55,15.86,11.76,15.87Z"
    transform="translate(-0.45 -5.65)"
  />
  <path
    class="cls-11"
    d="M12.65,15.87c.2,0,.38,0,.34.27s0,.49-.33.52-.34-.17-.37-.52S12.45,15.85,12.65,15.87Z"
    transform="translate(-0.45 -5.65)"
  />
</svg>
