<svg
  id="_1_noche"
  data-name="1 noche"
  xmlns="http://www.w3.org/2000/svg"
  viewBox="0 0 26.97 30.17"
>
  <defs>
    <style>
      .cls-1 {
        fill: #e94273;
      }
    </style>
  </defs>
  <path
    class="cls-1"
    d="M14.3,31.09a1.93,1.93,0,0,1-.3-.35.48.48,0,0,1,.5-.66h3.91c0-.12,0-.21,0-.31,0-2.95,0-5.91,0-8.86a.76.76,0,0,0-.16-.44q-4.83-6-9.66-11.91l-.08-.1a.5.5,0,0,1-.1-.59A.53.53,0,0,1,9,7.58h5.23A5,5,0,0,0,13.06,4.8,5.11,5.11,0,0,0,7.68,2.91a5.08,5.08,0,0,0-4,4.1,5.31,5.31,0,0,0,4.52,6.36,5.65,5.65,0,0,0,.58,0c.39,0,.63.21.63.52a.54.54,0,0,1-.63.5,6.16,6.16,0,0,1-5.49-3.38A6.35,6.35,0,1,1,15.19,7.41a.55.55,0,0,0,0,.16h7.54a.37.37,0,0,0,.41-.27c.21-.5.46-1,.67-1.5a.6.6,0,0,1,.86-.38,1.81,1.81,0,0,0,1.35-3.35,1.79,1.79,0,0,0-2.51,1.55c0,.48-.33.72-.7.58a.51.51,0,0,1-.34-.55A2.84,2.84,0,0,1,28.08,3a2.85,2.85,0,0,1-3.24,3.52.24.24,0,0,0-.24.11C23.79,8.42,23,10.19,22.2,12c0,0,0,0,0,.1a9.45,9.45,0,0,0,1.41-.25c.78-.25,1.54-.57,2.3-.87a.41.41,0,0,0,.19-.13c.59-.71,1.16-1.43,1.77-2.18l-.24,0c-.37,0-.73,0-1.09,0a.48.48,0,0,1-.47-.5.48.48,0,0,1,.45-.49c.84,0,1.67,0,2.51,0a.5.5,0,0,1,.3.85c-.34.44-.7.87-1.05,1.3L19.58,20.48a.57.57,0,0,0-.14.34c0,3,0,6.09,0,9.13a.53.53,0,0,0,0,.13h3.72c.29,0,.55,0,.68.32s-.07.49-.25.69ZM22.57,8.61H10l9,11.05,5.69-7c-.68.12-1.36.26-2,.37-.28.05-.64,0-.86.09s-.26.5-.41.75a.48.48,0,0,1-.65.21.49.49,0,0,1-.25-.64c.05-.14.11-.27.17-.41-.44-.1-.87-.17-1.28-.28a11.26,11.26,0,0,0-4.07-.63.5.5,0,0,1-.05-1,7.77,7.77,0,0,1,2.8.22l2.7.65a.37.37,0,0,0,.5-.24c.41-1,.85-1.9,1.27-2.84C22.49,8.81,22.52,8.72,22.57,8.61Z"
    transform="translate(-2.52 -0.91)"
  />
  <path
    class="cls-1"
    d="M8.35,5a3.13,3.13,0,0,1,0-.43.47.47,0,0,1,.5-.38.44.44,0,0,1,.47.4,3.66,3.66,0,0,1,0,.81.45.45,0,0,1-.49.42.48.48,0,0,1-.51-.43,2.54,2.54,0,0,1,0-.39Z"
    transform="translate(-2.52 -0.91)"
  />
  <path
    class="cls-1"
    d="M5.8,8.58H5.42a.5.5,0,0,1,0-1,5.45,5.45,0,0,1,.7,0,.5.5,0,0,1,.49.49.52.52,0,0,1-.5.51H5.8Z"
    transform="translate(-2.52 -0.91)"
  />
</svg>
