<svg
  xmlns="http://www.w3.org/2000/svg"
  id="Ubicacion"
  viewBox="0 0 27.86 31.68"
  width="1em"
  height="1.14em"
  fill="currentColor"
>
  <path
    d="M14.32,31.84l-1.44-.13A23.47,23.47,0,0,1,5.37,30,7.32,7.32,0,0,1,3,28.38a2.93,2.93,0,0,1,.08-4.3A8.49,8.49,0,0,1,6,22.32a21.77,21.77,0,0,1,4.43-1.18l.27-.06c-.06-.11-.1-.19-.16-.28-1.06-1.66-2.14-3.32-3.19-5A9.52,9.52,0,0,1,5.85,11.5,10,10,0,0,1,9.44,2.58a9.79,9.79,0,0,1,8-2.31A10.28,10.28,0,0,1,25.8,7.55a10.17,10.17,0,0,1-1.36,8.62c-1,1.56-2,3.14-3,4.71,0,.05-.06.11-.12.2l1,.18a18.37,18.37,0,0,1,5.05,1.66,5.61,5.61,0,0,1,2.07,1.73,2.83,2.83,0,0,1-.31,3.63,7.39,7.39,0,0,1-2.76,1.82,21.76,21.76,0,0,1-6.16,1.49c-.76.09-1.54.13-2.31.2l-.27.05ZM16,25.92l.24-.36L20,19.7c1.07-1.68,2.17-3.33,3.2-5a8.27,8.27,0,0,0-1-9.86,8,8,0,0,0-7.7-2.63A8,8,0,0,0,9.24,5.51a8.43,8.43,0,0,0-.32,9.33l5.95,9.32C15.24,24.73,15.6,25.3,16,25.92ZM16.73,30c.75-.06,2.23-.15,3.7-.31a18.56,18.56,0,0,0,5-1.24A5.65,5.65,0,0,0,27.7,27a1,1,0,0,0,0-1.5,5.26,5.26,0,0,0-1.22-.93,17,17,0,0,0-6-1.74.44.44,0,0,0-.51.25c-1,1.64-2.07,3.28-3.13,4.9a1.46,1.46,0,0,1-.6.53c-.43.18-.84,0-1.14-.5C14.08,26.39,13,24.75,12,23.09a.41.41,0,0,0-.49-.23c-.62.12-1.24.19-1.86.32a13.37,13.37,0,0,0-4.15,1.43,6.28,6.28,0,0,0-1.23,1,1,1,0,0,0,0,1.43,3.77,3.77,0,0,0,.66.6A10.53,10.53,0,0,0,8.14,29,32,32,0,0,0,16.73,30Z"
    transform="translate(-2.07 -0.16)"
  />
  <path
    d="M15.89,5.79a4.65,4.65,0,1,1-4.65,4.62A4.65,4.65,0,0,1,15.89,5.79Zm2.77,4.66a2.75,2.75,0,0,0-2.77-2.78,2.69,2.69,0,0,0-2.78,2.75,2.7,2.7,0,0,0,2.75,2.78A2.75,2.75,0,0,0,18.66,10.45Z"
    transform="translate(-2.07 -0.16)"
  />
</svg>
