<svg
  xmlns="http://www.w3.org/2000/svg"
  id="smarphone"
  viewBox="0 0 17.54 30.94"
  width="0.57em"
  height="1em"
  fill="currentColor"
>
  <path
    d="M22.89.53a2.61,2.61,0,0,1,1.39.86,2.29,2.29,0,0,1,.48,1.27c0,.1,0,.2,0,.3v26.1a2.3,2.3,0,0,1-2.24,2.4h-13a2.23,2.23,0,0,1-2.24-2.31V16.58c0-4.5,0-9,0-13.5A2.39,2.39,0,0,1,9.07.56l0,0ZM9,4.35V25.58H23.06V4.35Zm9.77,23H13.29V29h5.43ZM13,2.8h6V2.18H13ZM21,2a.54.54,0,0,0-.56.54.55.55,0,0,0,.57.56.54.54,0,0,0,.54-.56A.53.53,0,0,0,21,2Z"
    transform="translate(-7.23 -0.53)"
  />
</svg>
