<svg
  xmlns="http://www.w3.org/2000/svg"
  height="1em"
  width="1em"
  fill="currentColor"
  data-name="confi. perfil"
  viewBox="0 0 31.22 31.22"
>
  <path
    d="M5.62,9.6l-1-.92a2.1,2.1,0,0,1-.49-2.54A3.44,3.44,0,0,1,6.62,4a1.93,1.93,0,0,1,1.89.48c.39.39.75.8,1.05,1.11l3.6-1.51V3A2.23,2.23,0,0,1,15,.54,3.5,3.5,0,0,1,17.85.9a2.06,2.06,0,0,1,1,1.79c0,.5,0,1,0,1.43L22.4,5.6l.87-.88a2.18,2.18,0,0,1,2.85-.42A3.46,3.46,0,0,1,28,6.65a1.9,1.9,0,0,1-.47,1.83c-.34.36-.7.7-1,1.06a.36.36,0,0,0-.07.29,12.56,12.56,0,0,1,1.34,3.33H29a2.24,2.24,0,0,1,2.44,1.89,3.51,3.51,0,0,1-.27,2.6,2.09,2.09,0,0,1-2,1.19H27.82l-1.48,3.52,1,1a2.08,2.08,0,0,1,.49,2.51A3.44,3.44,0,0,1,25.34,28a1.86,1.86,0,0,1-1.8-.46c-.43-.41-.82-.86-1.22-1.29A12.64,12.64,0,0,1,19,27.65a.33.33,0,0,0-.15.26c0,.42,0,.84,0,1.26a2.14,2.14,0,0,1-1.49,2.18,3.54,3.54,0,0,1-3-.16,2.06,2.06,0,0,1-1.16-1.91c0-.46,0-.91,0-1.36a.36.36,0,0,0-.17-.28,12.56,12.56,0,0,1-3.26-1.39c-.34.36-.68.72-1,1.07A2.14,2.14,0,0,1,6,27.78a3.53,3.53,0,0,1-2-2.42,1.87,1.87,0,0,1,.47-1.83c.4-.42.84-.8,1.19-1.13l-1.5-3.56H3A2.24,2.24,0,0,1,.53,17a3.53,3.53,0,0,1,.28-2.66,2.08,2.08,0,0,1,1.92-1.15H4.16ZM17.78,28.32h0v-.94c0-.42.12-.56.53-.65a11.31,11.31,0,0,0,3.61-1.49c.41-.26.56-.24.91.11l1.28,1.28a1,1,0,0,0,1.11.3,2.46,2.46,0,0,0,1.71-1.7,1.07,1.07,0,0,0-.32-1.15c-.41-.4-.81-.8-1.21-1.21s-.41-.53-.11-1a10.88,10.88,0,0,0,1.45-3.46c.12-.51.24-.62.77-.62s1.16,0,1.75,0a1.13,1.13,0,0,0,1.2-1,5.09,5.09,0,0,0,0-1.35c-.14-.93-.46-1.17-1.41-1.17H27.51c-.51,0-.65-.11-.75-.61A11,11,0,0,0,25.28,10c-.25-.39-.22-.56.1-.88l1.28-1.29a1,1,0,0,0,.28-1,2.46,2.46,0,0,0-1.66-1.75,1.07,1.07,0,0,0-1.2.32c-.38.39-.78.78-1.17,1.16s-.53.41-1,.12a10.84,10.84,0,0,0-3.58-1.49c-.44-.09-.56-.24-.56-.68s0-1.14,0-1.71A1.16,1.16,0,0,0,17,1.64a2.5,2.5,0,0,0-1.48-.15c-1,.19-1.38.61-1.32,1.58,0,.49,0,1,0,1.48a.56.56,0,0,1-.52.64A10.64,10.64,0,0,0,10,6.72a.55.55,0,0,1-.85-.1L7.91,5.39a1.08,1.08,0,0,0-1.06-.33A2.41,2.41,0,0,0,5.13,6.57a1.15,1.15,0,0,0,.28,1.36L6.64,9.16a.55.55,0,0,1,.1.84,11.1,11.1,0,0,0-1.51,3.64c-.1.48-.24.58-.74.58H2.81A1.13,1.13,0,0,0,1.64,15a2.55,2.55,0,0,0,0,2,1.12,1.12,0,0,0,1.15.77q.89,0,1.77,0c.43,0,.59.13.68.55a10.78,10.78,0,0,0,1.51,3.6.58.58,0,0,1-.1.89L5.38,24.1a1,1,0,0,0-.31,1.12,2.39,2.39,0,0,0,1.54,1.65,1.14,1.14,0,0,0,1.33-.29c.42-.43.84-.84,1.26-1.26s.48-.34.85-.1a11.38,11.38,0,0,0,3.62,1.5c.45.11.54.23.55.7v1.77a1.11,1.11,0,0,0,.62,1.09,2.45,2.45,0,0,0,2.32,0,1.07,1.07,0,0,0,.62-1Z"
    transform="translate(-0.39 -0.39)"
  />
  <path
    d="M7.72,16A8.07,8.07,0,0,1,16,7.72,8.07,8.07,0,0,1,24.28,16,8.08,8.08,0,0,1,16,24.28,8.07,8.07,0,0,1,7.72,16Zm15.52,0A7,7,0,0,0,16,8.79,6.93,6.93,0,0,0,8.77,16,6.93,6.93,0,0,0,16,23.21,7,7,0,0,0,23.24,16Z"
    transform="translate(-0.39 -0.39)"
  />
  <path
    d="M13.42,15.16A3.38,3.38,0,0,1,14,10.81a3.41,3.41,0,0,1,4,0,3.38,3.38,0,0,1,.6,4.36l.49.14a3.32,3.32,0,0,1,2.36,3.1,6.36,6.36,0,0,1-.13,1.37,1.55,1.55,0,0,1-1.21,1.16,14.38,14.38,0,0,1-5.49.49,25.14,25.14,0,0,1-2.85-.55,1.42,1.42,0,0,1-1.05-1,3.76,3.76,0,0,1,1-3.92A3.61,3.61,0,0,1,13.42,15.16ZM16,20.46a15,15,0,0,0,3.7-.52.76.76,0,0,0,.57-.55,2.3,2.3,0,0,0-1.35-3,4.88,4.88,0,0,0-1-.25,1.72,1.72,0,0,0-.71.07,4.13,4.13,0,0,1-1.85.15,3.42,3.42,0,0,0-1.43-.23c-1.77.41-2.6,1.36-2.34,3.17a.66.66,0,0,0,.5.6A14.8,14.8,0,0,0,16,20.46Zm0-9.25a2,2,0,0,0-2.07,2,2.07,2.07,0,1,0,4.14,0A2,2,0,0,0,16,11.21Z"
    transform="translate(-0.39 -0.39)"
  />
</svg>
