<svg
  xmlns="http://www.w3.org/2000/svg"
  height="1em"
  width="1em"
  fill="currentColor"
  viewBox="0 0 31.18 31.16"
>
  <path
    d="M.38,17V14.93c0-.37.09-.76.14-1.13a15.36,15.36,0,0,1,3.3-7.6A15.27,15.27,0,0,1,13.23.63c.56-.11,1.13-.17,1.7-.25H17c.1,0,.2,0,.3.06.63.09,1.27.14,1.89.27a15.32,15.32,0,0,1,9.12,5.73A15.25,15.25,0,0,1,31.4,18.16a14.48,14.48,0,0,1-3.24,7.51A15.28,15.28,0,0,1,13.79,31.4a14.6,14.6,0,0,1-7.54-3.24A15.34,15.34,0,0,1,.63,18.71C.52,18.15.46,17.57.38,17Zm28.74-1A13.15,13.15,0,1,0,16,29.12,13.18,13.18,0,0,0,29.12,16Z"
    transform="translate(-0.38 -0.38)"
  />
  <path
    d="M17.19,17.81v1.9a1.22,1.22,0,1,1-2.44,0V16.78a1.18,1.18,0,0,1,1.08-1.25,3,3,0,0,0,1.71-.61,2.42,2.42,0,1,0-4-2.15,5,5,0,0,1-.1.66,1.19,1.19,0,0,1-1.3.86,1.21,1.21,0,0,1-1.08-1.2,4.88,4.88,0,1,1,6.36,4.63Z"
    transform="translate(-0.38 -0.38)"
  />
  <path
    d="M14.45,23.44A1.52,1.52,0,1,1,16,25,1.53,1.53,0,0,1,14.45,23.44Z"
    transform="translate(-0.38 -0.38)"
  />
</svg>
