<svg
  xmlns="http://www.w3.org/2000/svg"
  height="1em"
  width="1em"
  fill="currentColor"
  data-name="conf. busq."
  viewBox="0 0 28.69 28.67"
>
  <path
    d="M29.21,29.45a7,7,0,0,1-1.32.36A2.29,2.29,0,0,1,26,29.05c-2.31-2.32-4.64-4.64-7-7A2.49,2.49,0,0,1,18.32,20a.45.45,0,0,0-.12-.33c-.43-.45-.88-.89-1.32-1.33-.13-.15-.24-.13-.39,0a9.26,9.26,0,0,1-8.37,1.26,8.94,8.94,0,0,1-4.71-3.44A9.23,9.23,0,0,1,2,8.06,9,9,0,0,1,5.46,3a9.22,9.22,0,0,1,7.16-1.7,8.94,8.94,0,0,1,6,3.69,9.23,9.23,0,0,1,.94,9.7A9.19,9.19,0,0,1,18.83,16c-.13.2-.15.32,0,.49.43.41.84.84,1.27,1.25a.45.45,0,0,0,.32.14,2.62,2.62,0,0,1,2.21.86c1.47,1.5,3,3,4.45,4.46.84.84,1.7,1.68,2.51,2.55A2.34,2.34,0,0,1,30,28.51a2,2,0,0,0-.09.26ZM15.83,15.39a6.75,6.75,0,1,0-9.56,0A6.77,6.77,0,0,0,15.83,15.39Z"
    transform="translate(-1.59 -1.15)"
  />
  <path
    d="M14,5.15a2.7,2.7,0,0,0,3.16,4.31,6.21,6.21,0,0,1-.12,3.11L16.79,12l-1.3,0c-.07,0-.15.09-.19.16a2.5,2.5,0,0,0-.15.38.81.81,0,0,1-1.11.53l-.69-.25a.81.81,0,0,1-.5-1.12,1.18,1.18,0,0,1,.07-.2c.16-.27.07-.46-.18-.63a3.36,3.36,0,0,1-.56-.51c-.13-.14-.24-.19-.41-.09a2.53,2.53,0,0,1-.45.19.77.77,0,0,1-1-.38A6.2,6.2,0,0,1,10,9.36a.82.82,0,0,1,.43-1.1l.06,0c.49-.24.43-.24.45-.78s-.07-1-.74-1.18a.66.66,0,0,1-.38-.87,5.76,5.76,0,0,1,.31-.88.26.26,0,0,1,.2-.14A6.31,6.31,0,0,1,14,5.15Z"
    transform="translate(-1.59 -1.15)"
  />
  <path
    d="M15,5.82l.37.37a1,1,0,0,0-.51,1,1.42,1.42,0,0,0,.28.61c.36.41.88.42,1.47,0l.23.46A1.55,1.55,0,0,1,14.59,8,1.53,1.53,0,0,1,15,5.82Z"
    transform="translate(-1.59 -1.15)"
  />
</svg>
