<svg
  xmlns="http://www.w3.org/2000/svg"
  id="Capa_16"
  data-name="Capa 16"
  viewBox="0 0 30.3 27.31"
  width="1.1em"
  height="1em"
  fill="currentColor"
>
  <path
    d="M4.77,25.49V6.26A3.71,3.71,0,0,1,7.39,2.53a4.19,4.19,0,0,1,1.22-.18q9.36,0,18.71,0a3.72,3.72,0,0,1,3.77,3,.14.14,0,0,1,0,.06c.07.82.17,1.08-.87,1.06-1.84,0-3.68,0-5.52,0l-.12,0v.41q0,9.43,0,18.88a3.83,3.83,0,0,1-2.83,3.72,3.64,3.64,0,0,1-.87.11q-8.14,0-16.31,0A3.7,3.7,0,0,1,.85,26.06c0-.44.12-.57.58-.57H4.77Zm.89,0H17.42c.5,0,.62.12.65.6a2.8,2.8,0,0,0,3.79,2.5,2.84,2.84,0,0,0,1.87-2.83V6.08a3.69,3.69,0,0,1,1-2.58L25,3.23H8.67a3.81,3.81,0,0,0-1.06.14,2.82,2.82,0,0,0-1.95,2.9V25.49Zm11.53.9H1.92c0,.1,0,.18,0,.25a2.71,2.71,0,0,0,2.77,2.14H18.5A3.92,3.92,0,0,1,17.19,26.39ZM30.06,5.62a2.66,2.66,0,0,0-2.77-2.37c-1.39.1-2.68,1.28-2.59,2.37Z"
    transform="translate(-0.85 -2.34)"
  />
  <path
    d="M29.71,19.39c0,2.63,0,5.27,0,7.9a1.26,1.26,0,0,1-.2.62c-.27.41-.58.8-.88,1.19s-.56.33-.83,0c0,0,0,0,0,0a4,4,0,0,1-1.1-3.19c.06-4.78,0-9.57,0-14.36,0-.58.11-.69.68-.69H29c.56,0,.68.12.68.69,0,2.15,0,4.29,0,6.43v1.45ZM27.57,11.7v.4c0,4.88,0,9.76,0,14.63a2.05,2.05,0,0,0,.65,1.42,2.09,2.09,0,0,0,.62-1.43c0-4.87,0-9.73-.05-14.6V11.7Z"
    transform="translate(-0.85 -2.34)"
  />
  <path
    d="M28.19,9.25h1a.38.38,0,0,1,.43.41.41.41,0,0,1-.43.46H27.25a.45.45,0,0,1-.45-.48c0-.3.21-.4.48-.4Z"
    transform="translate(-0.85 -2.34)"
  />
  <path
    d="M7.92,19.76V18.58A1.78,1.78,0,0,1,9.73,16.7c.75,0,1.5,0,2.25,0,.37,0,.56.17.56.44s-.2.45-.55.46c-.73,0-1.46,0-2.19,0a.86.86,0,0,0-1,1c0,.81,0,1.62,0,2.42a.87.87,0,0,0,1,1c.78,0,1.57,0,2.35,0a.88.88,0,0,0,1-1c0-.21,0-.42,0-.64a.34.34,0,0,1,.39-.36c.17,0,.43.18.44.31a2.27,2.27,0,0,1-.44,2,1.8,1.8,0,0,1-1.32.57H9.74A1.8,1.8,0,0,1,7.92,21Z"
    transform="translate(-0.85 -2.34)"
  />
  <path
    d="M7.9,11.7A15.43,15.43,0,0,1,8,10,1.63,1.63,0,0,1,9.56,8.66c.83,0,1.68,0,2.52,0a.42.42,0,0,1,.46.43.43.43,0,0,1-.48.45H9.81a.87.87,0,0,0-1,1c0,.81,0,1.63,0,2.45a.88.88,0,0,0,1,1h2.39a.89.89,0,0,0,1-1c0-.22,0-.44,0-.67a.37.37,0,0,1,.38-.38c.23,0,.44.08.46.3a2.34,2.34,0,0,1-.49,2.08,1.79,1.79,0,0,1-1.24.52H9.68a1.77,1.77,0,0,1-1.75-1.73c0-.45,0-.9,0-1.35Z"
    transform="translate(-0.85 -2.34)"
  />
  <path
    d="M11.19,20l2.52-2.55c.08-.07.15-.16.24-.23a.43.43,0,0,1,.65,0,.44.44,0,0,1,0,.63l-.12.12-2.79,2.78c-.37.37-.55.37-.92,0l-1-1a.45.45,0,1,1,.62-.63C10.65,19.4,10.89,19.67,11.19,20Z"
    transform="translate(-0.85 -2.34)"
  />
  <path
    d="M11.19,11.94l1.3-1.34,1.43-1.42c.24-.23.51-.25.68,0a.44.44,0,0,1,0,.66l-3,3a.44.44,0,0,1-.73,0l-1.1-1.09A.46.46,0,0,1,9.7,11a.43.43,0,0,1,.66,0C10.63,11.31,10.88,11.6,11.19,11.94Z"
    transform="translate(-0.85 -2.34)"
  />
  <path
    d="M18.42,19.35H16a.78.78,0,0,1-.39-.07.57.57,0,0,1-.25-.39.72.72,0,0,1,.28-.4.71.71,0,0,1,.36,0h5a.45.45,0,0,1,0,.89H18.42Z"
    transform="translate(-0.85 -2.34)"
  />
  <path
    d="M18.4,10.4h2.49c.38,0,.55.13.56.42s-.19.46-.58.46h-5c-.34,0-.56-.18-.56-.44s.19-.44.55-.44Z"
    transform="translate(-0.85 -2.34)"
  />
  <path
    d="M18.39,13.9h2.52c.36,0,.53.14.53.42s-.17.46-.52.46H15.87c-.34,0-.55-.19-.54-.46s.19-.42.54-.42Z"
    transform="translate(-0.85 -2.34)"
  />
  <path
    d="M18.42,12.15h2.45c.4,0,.58.14.58.44s-.2.44-.6.44H15.91c-.37,0-.59-.18-.58-.46s.2-.42.56-.42Z"
    transform="translate(-0.85 -2.34)"
  />
  <path
    d="M18.41,20.2h2.35c.12,0,.25,0,.33,0s.32.23.33.36a.73.73,0,0,1-.25.45.7.7,0,0,1-.39.06H16a1,1,0,0,1-.24,0c-.27,0-.44-.19-.42-.47a.41.41,0,0,1,.44-.41h2.62Z"
    transform="translate(-0.85 -2.34)"
  />
  <path
    d="M18.38,22.85H15.93c-.38,0-.59-.17-.59-.45s.19-.43.59-.45h4.94c.39,0,.58.17.57.47s-.21.43-.57.43Z"
    transform="translate(-0.85 -2.34)"
  />
  <path
    d="M19.19,16.69c.56,0,1.12,0,1.68,0,.38,0,.58.17.57.47s-.2.43-.57.43c-1.14,0-2.28,0-3.43,0-.36,0-.56-.15-.57-.43s.19-.47.57-.47C18,16.68,18.61,16.69,19.19,16.69Z"
    transform="translate(-0.85 -2.34)"
  />
  <path
    d="M19.17,9.53H17.45c-.37,0-.58-.18-.58-.46s.2-.43.57-.43H20.9c.37,0,.55.16.54.45s-.2.43-.56.44Z"
    transform="translate(-0.85 -2.34)"
  />
  <path
    d="M13.32,5h-.44V4.6h1.3V5h-.44V7.31h-.42Z"
    transform="translate(-0.85 -2.34)"
  />
  <path
    d="M16.41,5.68H16l-.26.61-.25-.4a.79.79,0,0,0,.39-.72c0-.4-.18-.61-.53-.61s-.54.23-.54.65a1.14,1.14,0,0,0,.18.67.82.82,0,0,0-.34.71c0,.45.19.75.59.75a.6.6,0,0,0,.51-.29l.17.26h.46L16,6.66Zm-1-.78c.13,0,.15.1.15.27a.48.48,0,0,1-.19.44.72.72,0,0,1-.11-.44C15.22,5,15.26,4.9,15.37,4.9Zm0,2c-.15,0-.24-.11-.24-.37a.51.51,0,0,1,.12-.39l.36.56C15.5,6.85,15.44,6.93,15.32,6.93Z"
    transform="translate(-0.85 -2.34)"
  />
  <path
    d="M18.22,6.5v.11c0,.31,0,.74-.62.74S17,7,17,6.62V5.25c0-.42.19-.69.61-.69s.61.33.61.71v.12h-.42V5.22c0-.18,0-.28-.19-.28s-.19.1-.19.28V6.66c0,.17,0,.31.2.31s.19-.12.19-.32V6.5Z"
    transform="translate(-0.85 -2.34)"
  />
</svg>
