<svg
  xmlns="http://www.w3.org/2000/svg"
  height="1em"
  width="1em"
  fill="currentColor"
  data-name="eliminar perfil"
  viewBox="0 0 30.92 30.92"
>
  <path
    d="M16.78.54c.37.08.75.13,1.12.23a8,8,0,0,1,5.89,5.42,7.91,7.91,0,0,1-.61,6.53,8.14,8.14,0,0,1-2.24,2.59l.62.25a15.38,15.38,0,0,1,3.56,1.89,1.22,1.22,0,0,1,.35,1.68,1.19,1.19,0,0,1-1.67.35,14.71,14.71,0,0,0-3.36-1.75A13.48,13.48,0,0,0,15.17,17a13.17,13.17,0,0,0-6.62,2.27A12.73,12.73,0,0,0,4,24.56a21.56,21.56,0,0,0-1,2.77A1.25,1.25,0,0,0,4.35,29c.81,0,1.61,0,2.42,0h9.87a1.21,1.21,0,0,1,1,1.87,1.14,1.14,0,0,1-1,.55c-4.24,0-8.47,0-12.71,0A3.65,3.65,0,0,1,.6,28.51a1.06,1.06,0,0,0-.06-.19v-1c.16-.61.29-1.22.49-1.82A15.62,15.62,0,0,1,9,16.21c.67-.34,1.37-.6,2.07-.91l-.14-.13a15.93,15.93,0,0,1-1.54-1.65A7.77,7.77,0,0,1,8.21,6.2,8,8,0,0,1,14.1.77c.36-.1.74-.15,1.11-.23Zm-.8,14A5.79,5.79,0,1,0,10.2,8.76,5.81,5.81,0,0,0,16,14.54Z"
    transform="translate(-0.54 -0.54)"
  />
  <path
    d="M28,26.29l3,3a1.26,1.26,0,0,1,.41,1.22,1.21,1.21,0,0,1-2,.6c-.38-.35-.73-.72-1.1-1.08l-2-2a2.66,2.66,0,0,0-.24.23c-.93.93-1.86,1.87-2.8,2.79a1.21,1.21,0,0,1-2.07-.54,1.26,1.26,0,0,1,.4-1.23l2.72-2.71.28-.24-.24-.25c-.94-.94-1.88-1.86-2.8-2.8a1.22,1.22,0,1,1,1.76-1.68l2.75,2.76.23.21.25-.23c.92-.92,1.84-1.86,2.78-2.77A1.22,1.22,0,1,1,31,23.34L28.3,26.07Z"
    transform="translate(-0.54 -0.54)"
  />
</svg>
