<svg
  xmlns="http://www.w3.org/2000/svg"
  height="1em"
  width="1em"
  fill="currentColor"
  data-name="conf. pagos"
  viewBox="0 0 31.16 31.15"
>
  <path
    d="M19,.42a16.1,16.1,0,0,0,0,1.84,2.68,2.68,0,0,0,1.79,2.31,2.72,2.72,0,0,0,2.92-.45,13.05,13.05,0,0,0,1.13-1.24L29.09,7.1c-.34.33-.73.66-1.07,1A2.9,2.9,0,0,0,29.4,13a5.07,5.07,0,0,0,1,.1c.38,0,.75,0,1.15,0v5.85H30.11a3,3,0,0,0-1.75.59,2.89,2.89,0,0,0-.46,4.2c.37.42.82.77,1.2,1.13l-4.23,4.23c-.3-.33-.63-.71-1-1.06a2.91,2.91,0,0,0-4.78,1.17,3.81,3.81,0,0,0-.16,1c0,.45,0,.9,0,1.38H13.1c0-.52,0-1,0-1.53a2.84,2.84,0,0,0-2.26-2.77A2.78,2.78,0,0,0,8.19,28c-.37.34-.7.73-1.06,1.1L3,24.84c.29-.28.68-.61,1-1A2.89,2.89,0,0,0,2.59,19a4.41,4.41,0,0,0-1-.1c-.4,0-.8,0-1.21,0V13.1H.79A10.39,10.39,0,0,0,2.56,13,2.89,2.89,0,0,0,4,8.23c-.36-.39-.77-.73-1.17-1.1L7.13,3l.9.92a3,3,0,0,0,1.79.89A2.89,2.89,0,0,0,13,2.42c.09-.65.07-1.31.1-2ZM16,7.68A8.32,8.32,0,1,0,24.32,16,8.35,8.35,0,0,0,16,7.68Z"
    transform="translate(-0.42 -0.42)"
  />
  <path
    d="M15.35,10.3h1.29v1.86a5.31,5.31,0,0,1,3,1.43l-.8.9-1.07-.75a2.85,2.85,0,0,0-2.67-.23,1.31,1.31,0,0,0-.5.34.69.69,0,0,0,0,1.08,2,2,0,0,0,1.38.49A3.52,3.52,0,0,1,18,16a1.84,1.84,0,0,1,0,3.19,3.41,3.41,0,0,1-.65.35,6.43,6.43,0,0,1-.74.24v1.88h-1.3V19.94a12.74,12.74,0,0,1-1.62-.59,12.6,12.6,0,0,1-1.39-.94l.82-.95,1,.71a2.92,2.92,0,0,0,2.73.29,1.3,1.3,0,0,0,.41-.24.71.71,0,0,0,0-1.21A2,2,0,0,0,16,16.58,3.53,3.53,0,0,1,14,16a1.82,1.82,0,0,1-.08-3.11,9.29,9.29,0,0,1,1.48-.75Z"
    transform="translate(-0.42 -0.42)"
  />
</svg>
