<svg id="Ing" xmlns="http://www.w3.org/2000/svg" viewBox="0 0 30.85 20.24">
  <defs>
    <style>
      .cls-1 {
        fill: #ea4d58;
      }
      .cls-2 {
        fill: #f5f5f5;
      }
      .cls-3 {
        fill: #424898;
      }
      .cls-4 {
        fill: #d2d2e3;
      }
      .cls-5 {
        fill: #d2d1e1;
      }
      .cls-6 {
        fill: #d1d2e3;
      }
      .cls-7 {
        fill: #d2d1e2;
      }
    </style>
  </defs>
  <path
    class="cls-1"
    d="M.58,17.57V14.42a.78.78,0,0,1,.5-.07H13.82a1,1,0,0,0,.41,0,.27.27,0,0,0,.08-.07.87.87,0,0,0,0-.39V6.34c0-.15,0-.32.09-.45h3.12c.13.13.09.3.09.45v7.5c0,.15,0,.3.09.43a.85.85,0,0,0,.5.06H30.87a.8.8,0,0,1,.55.09v3.14a.8.8,0,0,1-.55.09H18.26a.81.81,0,0,0-.53.07c-.11.12-.08.26-.08.4v7.52c0,.15,0,.32-.09.46H14.44c-.13-.14-.09-.31-.09-.46v-7.5c0-.15,0-.3-.09-.43a.85.85,0,0,0-.5-.06H1.13A.8.8,0,0,1,.58,17.57Z"
    transform="translate(-0.58 -5.88)"
  />
  <path
    class="cls-2"
    d="M17.63,17.64c.1-.09.23-.05.34-.05H31l.38,0v1.08a.45.45,0,0,1-.34.08h-7.9c-.05,0,0,.06,0,0s0,0,0,0a4.7,4.7,0,0,1,.78.46l7,4.57c.18.12.39.21.49.42v.91c-.13.09-.22,0-.32-.09l-4.27-2.77c-1.72-1.12-3.46-2.23-5.17-3.36a.74.74,0,0,0-.45-.15H19.75c.63.45,1.25.83,1.87,1.23l3.84,2.49,5.05,3.28a1.28,1.28,0,0,1,.26.2c.05,0,.11.11,0,.17-.74,0-1.49,0-2.23,0a.82.82,0,0,1-.45-.16c-1.84-1.21-3.69-2.41-5.53-3.63L19,20c-.07-.05-.14-.15-.24-.1s-.05.16-.05.25v5.54c0,.14.09.35-.16.42h-.78c-.15,0-.21-.05-.19-.19V18A.59.59,0,0,1,17.63,17.64Z"
    transform="translate(-0.58 -5.88)"
  />
  <path
    class="cls-2"
    d="M31.42,14.43l-.38,0H18c-.11,0-.24.05-.34-.05a.49.49,0,0,1,0-.29V6.23c0-.32,0-.32.33-.32h.63c.14,0,.15.1.16.2a1.82,1.82,0,0,1,0,.33V12q0,.2.18.09L19,12c2.07-1.38,4.16-2.73,6.24-4.1l2.84-1.86a.79.79,0,0,1,.42-.15h1.41c.13.19-.06.23-.14.29L27.68,7.58c-1.29.82-2.56,1.66-3.84,2.49l-4.78,3.09a.28.28,0,0,0-.12.12h1.47a.71.71,0,0,0,.39-.14l5.86-3.8,4.47-2.9c.08-.06.17-.15.29-.07V7.81a.84.84,0,0,1-.31.31c-2.58,1.67-5.14,3.37-7.71,5-.08,0-.14.13-.24.11a1.9,1.9,0,0,0,.34,0H31c.15,0,.31,0,.43.08Z"
    transform="translate(-0.58 -5.88)"
  />
  <path
    class="cls-3"
    d="M31.42,13.35H23.07l0-.06,8.38-5.48Z"
    transform="translate(-0.58 -5.88)"
  />
  <path
    class="cls-3"
    d="M31.42,24.19l-8.37-5.48v-.06h8.36Z"
    transform="translate(-0.58 -5.88)"
  />
  <path
    class="cls-1"
    d="M31.42,6.36a6.57,6.57,0,0,0-1,.63L20.84,13.2a.89.89,0,0,1-.5.15H18.73a.68.68,0,0,1,.3-.25l10.78-7L30,6a.3.3,0,0,1,.13-.09c.2,0,.4,0,.6,0a.67.67,0,0,1,.71.42Z"
    transform="translate(-0.58 -5.88)"
  />
  <path
    class="cls-1"
    d="M30.82,26,23.3,21.13l-3.45-2.24-.34-.23h1.87c.12,0,.2.09.29.15l9.44,6.12c.1.06.18.16.31.17v.66c-.11.11-.19.26-.36.31A.19.19,0,0,1,30.82,26Z"
    transform="translate(-0.58 -5.88)"
  />
  <path
    class="cls-2"
    d="M.58,17.57l.36,0H14c.11,0,.24,0,.34.05a.49.49,0,0,1,0,.29v7.84c0,.32,0,.32-.33.32h-.63c-.14,0-.15-.1-.16-.2a1.82,1.82,0,0,1,0-.33V20c0-.13-.07-.15-.18-.09L13,20c-2.08,1.38-4.18,2.73-6.26,4.11L3.89,25.94a.79.79,0,0,1-.42.15H2.06c-.24-.1,0-.18,0-.22.36-.24.71-.49,1.08-.72,1.34-.85,2.67-1.73,4-2.6,2-1.27,3.93-2.56,5.91-3.83-.47,0-.95,0-1.42,0a1,1,0,0,0-.51.15L6.9,21.64l-6,3.9c-.09.06-.18.14-.3.11V24.18a.92.92,0,0,1,.3-.29C3.47,22.22,6,20.51,8.61,18.84c.08-.05.14-.12.19-.11H1.05c-.16,0-.33,0-.47-.07Z"
    transform="translate(-0.58 -5.88)"
  />
  <path
    class="cls-2"
    d="M.58,7.82V7c.14,0,.23.05.32.11C3.09,8.57,5.3,10,7.49,11.42c.87.57,1.74,1.14,2.63,1.7a1,1,0,0,0,.53.16c.44,0,.88,0,1.34,0-.39-.24-.76-.51-1.14-.76-1.39-.88-2.76-1.79-4.14-2.68C4.9,8.65,3.11,7.47,1.3,6.31,1.16,6.21,1,6.17.93,6h0c.54-.06,1.09,0,1.64,0h.86a.81.81,0,0,1,.45.15L9.4,9.68c1.19.78,2.39,1.55,3.58,2.34.07.05.14.15.23.1s.06-.18.06-.28V6.34c0-.15-.08-.36.16-.43h.78c.15,0,.21,0,.19.19V14a.58.58,0,0,1,0,.32h0c-.09.06-.19,0-.29,0H.88a.52.52,0,0,1-.3,0v-1A.56.56,0,0,1,1,13.27c2.61,0,5.23,0,7.85,0a.05.05,0,0,0,0,0c-.12,0-.19-.05-.27-.11C6.32,11.68,4.07,10.2,1.82,8.71c-.32-.21-.65-.4-1-.62A.8.8,0,0,1,.58,7.82Z"
    transform="translate(-0.58 -5.88)"
  />
  <path
    class="cls-3"
    d="M13.35,5.94v6.42L3.54,5.93l0,0,0,0h9.78S13.38,5.91,13.35,5.94Z"
    transform="translate(-0.58 -5.88)"
  />
  <path
    class="cls-3"
    d="M28.46,5.93l-9.81,6.43V5.94s0-.05,0-.05h9.79l0,0Z"
    transform="translate(-0.58 -5.88)"
  />
  <path
    class="cls-3"
    d="M3.54,26.07l9.81-6.43v6.42s0,.05,0,.05H3.55l0,0Z"
    transform="translate(-0.58 -5.88)"
  />
  <path
    class="cls-3"
    d="M18.65,26.06V19.64l9.81,6.43,0,0,0,0H18.67S18.62,26.09,18.65,26.06Z"
    transform="translate(-0.58 -5.88)"
  />
  <path
    class="cls-3"
    d="M.58,7.82,6,11.37l2.69,1.77c.08,0,.18.08.24.2H.58Z"
    transform="translate(-0.58 -5.88)"
  />
  <path
    class="cls-3"
    d="M.58,18.66H8.94c0,.1-.1.12-.15.15L.69,24.12l-.11.06Z"
    transform="translate(-0.58 -5.88)"
  />
  <path
    class="cls-1"
    d="M.59,25.65l10.6-6.88a.41.41,0,0,1,.24-.11h1.89l-.85.55L2.07,26a.58.58,0,0,0-.12.1c0,.05-.08,0-.11.06H1.25A.57.57,0,0,1,.59,25.65Z"
    transform="translate(-0.58 -5.88)"
  />
  <path
    class="cls-1"
    d="M.93,6l2.74,1.8L12,13.14a.51.51,0,0,1,.22.2H10.38c-.11,0-.19-.09-.28-.15Q5.33,10.12.58,7c0-.2,0-.39,0-.59A.46.46,0,0,1,.93,6Z"
    transform="translate(-0.58 -5.88)"
  />
  <path
    class="cls-4"
    d="M.58,14.37H14.36c-.11.09-.23,0-.35,0H.58Z"
    transform="translate(-0.58 -5.88)"
  />
  <path
    class="cls-4"
    d="M13.35,5.94a.08.08,0,0,1,0-.05h1.11c0,.12,0,.25,0,.38q0,3.89,0,7.77c0,.11,0,.22,0,.32,0-2.69,0-5.37,0-8.06,0-.29-.08-.4-.37-.37A4.85,4.85,0,0,1,13.35,5.94Z"
    transform="translate(-0.58 -5.88)"
  />
  <path
    class="cls-4"
    d="M18.67,5.89a.08.08,0,0,1,0,.05H17.9c-.21,0-.28.06-.28.27,0,.86,0,1.72,0,2.59v5.56c-.08-.1,0-.21,0-.32,0-2.59,0-5.18,0-7.77,0-.13,0-.26,0-.38Z"
    transform="translate(-0.58 -5.88)"
  />
  <path
    class="cls-4"
    d="M13.33,26.11a.08.08,0,0,1,0-.05c.25,0,.5,0,.75,0s.28-.07.28-.28c0-.86,0-1.72,0-2.58V17.64c.08.1,0,.21,0,.32q0,3.88,0,7.77c0,.13,0,.26,0,.39Z"
    transform="translate(-0.58 -5.88)"
  />
  <path
    class="cls-4"
    d="M18.65,26.06a.08.08,0,0,1,0,.05H17.56c0-.13,0-.26,0-.39,0-2.59,0-5.18,0-7.77,0-.11,0-.22,0-.32,0,2.69,0,5.37,0,8.06,0,.29.08.4.37.37A4.85,4.85,0,0,1,18.65,26.06Z"
    transform="translate(-0.58 -5.88)"
  />
  <path
    class="cls-5"
    d="M28.46,26.11s0,0,0,0h2a.51.51,0,0,0,.32,0,.4.4,0,0,0,.24.05.35.35,0,0,1-.13.05Z"
    transform="translate(-0.58 -5.88)"
  />
  <path
    class="cls-6"
    d="M3.55,5.89a.06.06,0,0,1,0,0H.94a.17.17,0,0,1,.16-.06Z"
    transform="translate(-0.58 -5.88)"
  />
  <path
    class="cls-7"
    d="M28.46,5.93s0,0,0,0h1.65L30,6a6.46,6.46,0,0,0-1.16,0Z"
    transform="translate(-0.58 -5.88)"
  />
  <path
    class="cls-6"
    d="M1.84,26.12,2,26.06H3.54a.06.06,0,0,1,0,0Z"
    transform="translate(-0.58 -5.88)"
  />
</svg>
