<svg
  xmlns="http://www.w3.org/2000/svg"
  id="instagram"
  viewBox="0 0 29.69 29.67"
  width="1em"
  height="1em"
  fill="currentColor"
>
  <path
    d="M30.87,7.49V23.83l-.06.22a11.88,11.88,0,0,1-.56,2,7.24,7.24,0,0,1-6.93,4.48c-4.84,0-9.69,0-14.54,0a7.18,7.18,0,0,1-3.53-.83,7,7,0,0,1-4-6.29c-.09-5.14,0-10.29,0-15.43a6,6,0,0,1,.35-2A7.3,7.3,0,0,1,7.06,1c.27-.07.54-.11.81-.17H24.21l.19.06a12,12,0,0,1,1.32.3,7.35,7.35,0,0,1,5,5.43C30.77,6.91,30.81,7.2,30.87,7.49ZM16.05,28h7.18a7.93,7.93,0,0,0,1-.06,4.92,4.92,0,0,0,4.17-4.64c0-5.06,0-10.12,0-15.18,0-.2,0-.4-.05-.6a4.89,4.89,0,0,0-4.7-4.21H8.54c-.22,0-.44,0-.66.05A4.91,4.91,0,0,0,3.7,8.06c0,4.92,0,9.85,0,14.77a8.43,8.43,0,0,0,.06,1A4.92,4.92,0,0,0,8.34,28C10.91,28,13.48,28,16.05,28Z"
    transform="translate(-1.19 -0.83)"
  />
  <path
    d="M16,23.08a7.42,7.42,0,1,1,7.44-7.4A7.42,7.42,0,0,1,16,23.08Zm0-2.49a4.93,4.93,0,1,0-4.92-4.93A4.92,4.92,0,0,0,16,20.59Z"
    transform="translate(-1.19 -0.83)"
  />
  <path
    d="M24.08,9.48a1.85,1.85,0,0,1-1.86-1.84,1.86,1.86,0,1,1,1.86,1.84Z"
    transform="translate(-1.19 -0.83)"
  />
</svg>
